<svg width="1362" height="1102" viewBox="0 0 1362 1102" fill="none" xmlns="http://www.w3.org/2000/svg">
<path d="M3.2999 918.7C26.5999 888.6 67.8999 887.6 102 894.7C121.7 898.8 141 904.7 160.4 910.1C180.5 915.6 200.6 921.2 220.7 926.7C243.4 933 266 939.2 288.7 945.5C290.6 946 291.4 943.1 289.5 942.6C247.4 931 205.2 919.3 163.1 907.7C125.8 897.4 85.0999 881.7 45.9999 890C28.5999 893.7 12.0999 902.3 1.0999 916.5C-0.000104338 918.1 2.0999 920.2 3.2999 918.7Z" fill="#E8E8E8"/>
<path d="M149.1 904.8C159.7 899.6 164.2 885.8 175.7 882.2C187.5 878.5 200.6 885.8 211.4 877.8C216.1 874.3 219.6 868.5 225.3 866.4C230.3 864.6 235.5 866.6 240.3 868.1C244.4 869.4 248.5 870.6 252.6 871.9C269.1 877 285.5 882 302 887.1C320.7 892.8 339.3 898.6 358 904.3C359.8 904.9 360.6 902 358.8 901.4C324.6 890.9 290.5 880.4 256.3 869.9C248.3 867.5 240 863.8 231.7 862.8C225.9 862.1 221.3 864.4 217.2 868.2C211.5 873.5 207.2 878.4 198.9 878.8C192 879.2 185.2 877.4 178.3 878.5C164.1 880.7 159.7 896.2 147.7 902.1C145.9 903.1 147.4 905.7 149.1 904.8Z" fill="#E8E8E8"/>
<path d="M328.8 892.2C335.9 894 341.5 886.9 347.9 884.8C356.5 881.9 365.7 883.1 373.5 887.6C375.2 888.6 376.7 886 375 885C368.4 881.1 360.9 879.5 353.3 880.5C350 880.9 346.9 881.8 343.9 883.1C339.6 885 334.6 890.5 329.6 889.3C327.7 888.8 326.9 891.7 328.8 892.2Z" fill="#E8E8E8"/>
<path d="M405.9 884.7C399.2 879.2 392.8 873.3 386.8 867C384 864.1 381.3 861 378.7 857.9C377.2 856.1 375.7 854.3 374.3 852.5C373.3 851.2 372.3 849.9 371.4 848.6C369.8 847 369.8 845 371.5 842.8C372.7 843.3 374.6 842.1 373.6 840.7C367.5 832.5 363 823.5 360.1 813.7C359.5 814.3 358.9 814.9 358.3 815.5C361.6 816.4 364 818.1 365.8 820.9C366.8 822.5 369.4 821.1 368.4 819.4C353.5 793.6 341.3 766.4 332.1 738.1C331.3 738.6 330.4 739.1 329.6 739.6C371.5 780.8 390.5 838.1 425.8 884.2C427 885.7 429.6 884.2 428.4 882.7C393 836.4 373.8 778.9 331.7 737.5C330.7 736.5 328.7 737.5 329.2 739C338.5 767.6 350.7 795 365.8 821C366.7 820.5 367.5 820 368.4 819.5C366.1 816 363.1 813.7 359.1 812.7C358 812.4 356.9 813.4 357.3 814.5C360.3 824.5 364.9 833.8 371.1 842.2C371.8 841.5 372.5 840.8 373.2 840.1C370.4 838.8 367.3 840.1 366.6 843.4C365.7 848.1 371.4 853.3 374 856.6C382.9 867.7 393 877.8 404 886.8C405.3 888 407.4 885.9 405.9 884.7Z" fill="#E8E8E8"/>
<path d="M395.4 822.2C377 794.7 362.1 765.2 351.1 734C350.8 734.6 350.4 735.2 350.1 735.8C353.5 735 356.4 736.3 358.3 739.3C359.3 741 361.7 739.5 360.9 737.8C345.4 704.3 329.6 669.4 330.7 631.7C329.8 632 328.8 632.2 327.9 632.5C354.6 687.5 380 743.2 404 799.4C404.7 801 407.3 799.8 406.7 798.2C402.7 786.2 398.8 774.1 394.8 762.1C392.9 756.2 390.9 750.4 389 744.5C387.7 740.6 384.9 732.1 390.5 730C389.9 729.8 389.4 729.5 388.8 729.3C396 743.4 403.1 757.5 410.3 771.6C411.2 773.3 413.8 771.8 412.9 770.1C405.1 754.8 401.5 737.9 402.2 720.7C401.2 720.8 400.2 721 399.3 721.1C420.1 772.8 444.2 823.2 471.3 871.9C472.2 873.6 474.8 872.1 473.9 870.4C446.9 821.9 422.9 771.8 402.2 720.3C401.6 718.8 399.3 718.9 399.3 720.7C398.6 738.4 402.4 755.7 410.4 771.6C411.3 771.1 412.1 770.6 413 770.1C405.8 756 398.7 741.9 391.5 727.8C391.2 727.3 390.4 726.9 389.8 727.1C379.8 730.8 386.2 745.1 388.4 751.8C393.6 767.5 398.7 783.3 403.9 799C404.8 798.6 405.7 798.2 406.6 797.8C382.6 741.6 357.2 685.9 330.5 630.9C329.8 629.5 327.7 630.3 327.7 631.7C326.5 669.9 342.6 705.4 358.3 739.3C359.2 738.8 360 738.3 360.9 737.8C358.3 733.7 354.1 731.9 349.3 732.9C348.5 733.1 348 734 348.3 734.7C359.4 766.1 374.4 795.9 392.9 823.6C393.9 825.3 396.5 823.8 395.4 822.2Z" fill="#E8E8E8"/>
<path d="M197.8 1015.5C232.4 998.8 268.9 981.8 308.4 985.8C327.1 987.7 345.2 993.1 363.8 995.5C373.2 996.7 382.7 997.2 392.1 996.1C400.9 995 409.2 991.8 417.8 989.9C428.9 987.4 439 990 449.7 993C458.5 995.4 467.2 997.4 476.3 995.3C478.2 994.9 477.4 992 475.5 992.4C457.3 996.7 440.2 983.6 421.8 986.2C412.7 987.5 404.2 991.1 395.2 992.7C385.7 994.3 376 994.1 366.4 992.9C347.5 990.7 329.1 985.1 310.1 983C291.4 980.9 272.9 983.3 255 988.5C234.6 994.5 215.3 1003.7 196.3 1012.9C194.5 1013.7 196.1 1016.3 197.8 1015.5Z" fill="#E8E8E8"/>
<path d="M400.8 1098.4C412.5 1093.4 424 1087.9 435.1 1081.7C440.9 1078.4 446.6 1075 452.3 1071.4C457.4 1068.1 462.5 1063.4 468.1 1061C474.4 1058.4 483.9 1063.3 490.2 1065.2C496.9 1067.3 503.6 1069.3 510.2 1071.4C523.9 1075.6 537.6 1079.8 551.2 1084C553 1084.6 553.8 1081.7 552 1081.1C537.4 1076.6 522.7 1072.1 508.1 1067.6C501.1 1065.4 494.1 1063.3 487.1 1061.1C481.7 1059.4 474.9 1055.9 469.2 1057.3C463.9 1058.6 459.1 1063.2 454.6 1066.2C448.8 1070 442.8 1073.7 436.8 1077.2C424.7 1084.1 412.2 1090.3 399.3 1095.7C397.5 1096.5 399.1 1099.1 400.8 1098.4Z" fill="#E8E8E8"/>
<path d="M525.2 1101.5C532.8 1097.7 540.4 1093.8 548 1090C555 1086.4 562.5 1081.6 570.5 1080.9C578.6 1080.1 584.9 1085.4 591.9 1088.5C597.8 1091.1 604.2 1092.6 610.6 1093C625.6 1093.8 639.6 1086.3 654.5 1087.1C666.4 1087.8 678.4 1097.6 690.1 1091.4C691.8 1090.5 690.3 1087.9 688.6 1088.8C681.3 1092.7 673.4 1088.9 666.2 1086.6C660 1084.6 654 1083.7 647.5 1084.4C632.1 1086 618 1092.5 602.2 1088.8C589.1 1085.8 579.1 1074.9 565 1079C558.5 1080.9 552.4 1084.5 546.4 1087.5C538.8 1091.3 531.2 1095.2 523.6 1099C522 1099.8 523.5 1102.4 525.2 1101.5Z" fill="#E8E8E8"/>
<path d="M583.6 1079.8C577.4 1074.4 571.8 1068.4 567.2 1061.5C565.1 1058.4 563.2 1055.1 561.4 1051.8C560.5 1050.1 559.7 1048.4 559 1046.7C558.4 1045.3 557.8 1044 557.3 1042.6C556.4 1041.1 556.8 1039.7 558.5 1038.4C559.4 1038 560.3 1037.6 561.2 1037.2C550.2 1021 543.3 1002.6 541 983.2C540.1 983.6 539.3 983.9 538.4 984.3C540.2 986.6 542 988.9 543.9 991.3C545 992.7 547.1 990.9 546.3 989.5C528.9 958.4 519.6 923.4 519.4 887.8C518.5 888.2 517.7 888.5 516.8 888.9C523.6 894.4 528.8 901.2 532 909.3C532.9 908.9 533.8 908.5 534.7 908.1C526.9 891.6 525.3 873 529.9 855.4C528.9 855.4 528 855.4 527 855.4C547.5 914.1 567.9 972.7 588.4 1031.4C589 1033.2 591.9 1032.4 591.3 1030.6C581 1000.5 575.9 968.9 576.2 937C575.3 937.4 574.5 937.7 573.6 938.1C579.7 943.6 583.5 950.5 584.9 958.6C585.2 960.3 587.9 959.9 587.8 958.2C587.5 952.1 587.1 945.9 586.8 939.8C586 940.2 585.3 940.7 584.5 941.1C589.8 944.5 590.8 953.5 592.5 959.1C594.3 965.1 596.1 971.1 598 977.2C601.7 989.6 605.5 1001.9 609.2 1014.3C616.7 1039 624.2 1063.8 631.7 1088.5C632.3 1090.3 635.2 1089.6 634.6 1087.7C626.5 1061.1 618.5 1034.4 610.4 1007.8C606.5 994.8 602.5 981.8 598.6 968.8C596.6 962.1 594.6 955.5 592.6 948.8C591.3 944.7 589.8 941 586.1 938.6C585.2 938 583.8 938.8 583.8 939.9C584.1 946 584.5 952.2 584.8 958.3C585.8 958.2 586.8 958 587.7 957.9C586.3 949.3 582.1 941.8 575.6 936C574.6 935.1 573.1 935.7 573 937.1C572.7 969.2 577.8 1001.1 588.2 1031.5C589.2 1031.2 590.1 1031 591.1 1030.7C570.6 972 550.2 913.4 529.7 854.7C529.2 853.4 527.2 853.2 526.8 854.7C522 873.2 523.8 892.5 531.9 909.7C532.6 911.2 535.3 910.1 534.6 908.5C531.2 899.9 525.9 892.6 518.6 886.8C517.6 886 516 886.5 516 887.9C516.2 924 525.6 959.6 543.3 991.1C544.1 990.5 544.9 989.9 545.7 989.3C543.9 987 542.1 984.7 540.2 982.3C539.4 981.3 537.5 982.1 537.6 983.4C539.9 1003.4 546.9 1022.3 558.2 1038.9C559.2 1040.3 561.2 1039.4 560.9 1037.7C560.4 1034.9 557.1 1033.9 554.8 1035.6C550.6 1038.6 554.7 1045.7 556.2 1049.1C561.9 1061.8 570.4 1072.9 580.9 1082C583 1083.1 585.1 1081 583.6 1079.8Z" fill="#E8E8E8"/>
<path d="M479 855.5C477.7 836.7 511.8 847.5 521.3 849.3C536.9 852.2 552.4 855.1 568 858C599.1 863.8 630.3 869.6 661.4 875.4C663.3 875.8 664.1 872.9 662.2 872.5C626.5 865.8 590.9 859.2 555.2 852.5C537.7 849.2 520.2 845.9 502.7 842.7C496.4 841.5 489.1 840.2 483.2 843.5C478.7 845.9 475.7 850.3 476.1 855.5C476.1 857.4 479.2 857.4 479 855.5Z" fill="#E8E8E8"/>
<path d="M640.7 872.1C651.1 873.2 657.5 863.3 665.6 858.5C672.5 854.5 678.5 857.6 685.6 859C693.5 860.6 701.6 860.8 709.6 859.8C711.5 859.6 711.5 856.6 709.6 856.8C700.6 857.9 691.6 857.5 682.8 855.3C677.5 853.9 672.7 852.2 667.4 854.3C658 857.9 651.6 870.3 640.7 869.1C638.8 868.9 638.8 871.9 640.7 872.1Z" fill="#E8E8E8"/>
<path d="M831.4 1064.4C855.4 1056 879.6 1047.6 904.4 1041.6C930.3 1035.4 956.4 1032.9 983 1033.7C1009.3 1034.5 1035.4 1037.5 1061.6 1039.9C1087.9 1042.4 1114.2 1044.8 1140.5 1047.3C1170.7 1050.1 1201 1052.9 1231.2 1055.8C1233.1 1056 1233.1 1053 1231.2 1052.8C1177.3 1047.8 1123.4 1042.8 1069.4 1037.7C1017.5 1032.9 965.3 1025.8 913.6 1036.5C885.2 1042.4 857.8 1052 830.5 1061.5C828.8 1062.1 829.6 1065 831.4 1064.4Z" fill="#E8E8E8"/>
<path d="M937.1 966C955 962.2 971.8 954.7 988.7 947.9C1006.8 940.7 1025.1 935.7 1044.5 934C1064.1 932.3 1083.8 933.3 1103.3 934.5C1122.9 935.7 1142.5 937.1 1162.2 938.5C1185.1 940.2 1208.1 942.1 1231 944.1C1232.9 944.3 1232.9 941.3 1231 941.1C1190.4 937.5 1149.8 934.4 1109.1 931.8C1070.4 929.3 1032.3 928.3 995.4 942C975.8 949.3 956.8 958.6 936.2 963C934.5 963.5 935.2 966.4 937.1 966Z" fill="#E8E8E8"/>
<path d="M1167.6 850.7C1181.9 839.8 1197 829.1 1213 820.9C1220.8 816.9 1229.2 813.7 1238 813C1247.5 812.2 1257 814.1 1266.3 815.3C1285.2 817.6 1304.2 819 1323.2 820.2C1335.8 821 1351.8 822.8 1360.7 811.8C1361.9 810.3 1359.8 808.2 1358.6 809.7C1348.5 822.2 1327.2 817.5 1313.4 816.6C1294.4 815.3 1275.6 813.5 1256.7 811.1C1248.6 810.1 1240.6 809.3 1232.5 810.8C1224.5 812.2 1217 815.4 1209.9 819.2C1194.5 827.4 1179.9 837.6 1166 848.2C1164.6 849.3 1166.1 851.9 1167.6 850.7Z" fill="#E8E8E8"/>
<path d="M617.1 834.2C631.3 823.5 645.6 812.9 659.8 802.2C673.4 792 686.1 781.3 703.9 780.4C720.7 779.6 737.9 781.5 754.6 782.9C772.6 784.4 790.5 786.4 808.3 788.9C823.3 791 841.2 796.6 855.4 788.8C857.1 787.9 855.6 785.3 853.9 786.2C846.6 790.2 838.5 790.2 830.4 789.2C821.7 788.1 813 786.6 804.3 785.4C787.5 783.1 770.6 781.2 753.6 779.8C736.9 778.4 719.6 776.4 702.9 777.4C687.4 778.3 675.9 786.3 663.8 795.4C647.7 807.4 631.7 819.5 615.6 831.5C614.1 832.8 615.6 835.4 617.1 834.2Z" fill="#E8E8E8"/>
<path d="M1179.7 939.9C1180.6 933.3 1181.9 926.9 1183.8 920.5C1184.7 917.5 1185.6 914.5 1186.8 911.5C1187.5 909.7 1189.4 906.7 1192 907.4C1193.3 907.8 1193.9 912.3 1194 913.2C1194.2 914.8 1196.4 915.3 1196.9 913.6C1201.6 898.3 1207 881.5 1221.4 872.6C1220.6 872.2 1219.9 871.7 1219.1 871.3C1219.1 873.8 1219 876.4 1219 878.9C1219 880.3 1221.1 881 1221.8 879.7C1230.7 861.2 1240.4 841.8 1258.4 830.6C1257.7 830 1256.9 829.5 1256.2 828.9C1247.2 852.2 1236.7 874.9 1224.8 896.9C1224 898.3 1226 900.1 1227.2 898.7C1233.9 890.7 1240.7 882.7 1249.5 876.9C1248.8 876.2 1248.1 875.5 1247.4 874.8C1236.3 898.2 1224.2 921 1210.9 943.2C1209.9 944.9 1212.5 946.4 1213.5 944.7C1226.7 922.5 1238.9 899.7 1250 876.3C1250.6 875.1 1249.3 873.3 1247.9 874.2C1238.9 880.2 1231.9 888.3 1225 896.5C1225.8 897.1 1226.6 897.7 1227.4 898.3C1239.4 876.1 1250 853.2 1259.1 829.6C1259.6 828.4 1257.9 827.3 1256.9 827.9C1238.4 839.4 1228.4 859.1 1219.2 878.1C1220.1 878.4 1221.1 878.6 1222 878.9C1222 876.4 1222.1 873.8 1222.1 871.3C1222.1 870.2 1220.8 869.4 1219.8 870C1204.8 879.3 1198.9 896.7 1194 912.8C1195 912.9 1196 913.1 1196.9 913.2C1196.4 908.1 1191.8 899.4 1186.2 905.9C1183.4 909.2 1182.3 914.6 1181.1 918.7C1179.1 925.3 1177.7 932.1 1176.7 939C1176.6 941 1179.4 941.8 1179.7 939.9Z" fill="#E8E8E8"/>
<path d="M481 771.1C488.8 766.9 496.7 762.7 505.3 760.4C514.4 758 523.4 758.8 532.5 760C550.6 762.4 568.7 764.8 586.7 767.2C588.6 767.5 588.6 764.5 586.7 764.2C567.4 761.6 548 758.8 528.7 756.5C519.8 755.4 511.3 755.4 502.7 757.9C494.5 760.3 486.9 764.4 479.4 768.4C477.7 769.5 479.3 772 481 771.1Z" fill="#E8E8E8"/>
<path d="M50.8 426.8C57.5 416.5 71.9 421.9 80.8 425.5C91.1 429.7 101.5 432.8 111.1 425.4C116 421.6 120 417 126.1 415.2C132.4 413.2 139.4 414.1 145.8 415.6C157.8 418.5 168.9 424.4 181.5 424.6C183.4 424.6 183.4 421.6 181.5 421.6C167 421.3 154.4 413.4 140.2 411.5C134.7 410.8 129.1 410.9 123.8 412.8C118.5 414.7 114.7 418.6 110.5 422.1C97.3 433.1 84.5 421.8 70.8 418.8C62.6 417 53.2 417.6 48.2 425.3C47.2 426.9 49.8 428.4 50.8 426.8Z" fill="#E8E8E8"/>
<path d="M1089.3 92.8C1096.5 86.7 1106.6 87.9 1114.5 91.8C1120.5 94.7 1125.4 100.6 1132.4 100.9C1138.9 101.1 1144.3 96.7 1149.8 93.8C1153.5 91.9 1157.3 90.6 1161.5 91.5C1166 92.4 1169.9 95 1174 96.8C1187.5 102.7 1196.5 94.5 1207.9 88C1211.1 86.2 1214.5 84.6 1218.2 84.3C1222.9 83.9 1227.1 86 1231.3 87.8C1237.9 90.6 1242.9 91.7 1249.6 89C1256.5 86.3 1262.1 86.7 1269 89.2C1273.4 90.8 1277.6 92.8 1282.2 93.8C1289.1 95.4 1296.5 95 1301.7 89.7C1303.1 88.3 1300.9 86.2 1299.6 87.6C1292.9 94.4 1282.7 91.2 1275 88.2C1267.2 85.2 1259.2 82 1250.9 85.1C1245.7 87.1 1242.2 88.5 1236.6 86.6C1232.8 85.3 1229.3 83.2 1225.4 82.1C1219.5 80.3 1214 81.3 1208.6 84C1202.4 87.1 1197 92 1190.5 94.6C1181.9 98 1175.2 93.5 1167.4 90.2C1161.7 87.8 1156.3 87.4 1150.6 89.9C1143.7 93 1137 99.8 1128.9 96.9C1124.6 95.4 1121.2 91.9 1117.3 89.7C1114 87.9 1110.4 86.6 1106.7 85.9C1099.6 84.6 1092.7 85.8 1087.1 90.5C1085.7 92 1087.9 94.1 1089.3 92.8Z" fill="#E8E8E8"/>
<path d="M1125.3 161.1C1127.2 161.1 1127.2 158.1 1125.3 158.1C1123.4 158.1 1123.4 161.1 1125.3 161.1Z" fill="#E8E8E8"/>
<path d="M1145.3 172C1150 163.5 1161.1 167.6 1168 170.4C1174.9 173.2 1181.1 174.9 1188.4 172.4C1194.4 170.3 1199.8 166.3 1206 164.9C1214.6 162.9 1219.5 170.2 1227.3 171.9C1239.5 174.6 1251.8 161 1263.3 166.7C1266.5 168.3 1268.7 170.4 1272.5 170.1C1276 169.9 1279.2 168.2 1282.6 167.4C1292.1 165.2 1302 166.9 1310.5 171.6C1312.2 172.5 1313.7 169.9 1312 169C1306.6 166 1300.8 164.2 1294.7 163.6C1291.6 163.3 1288.4 163.4 1285.3 163.9C1281.6 164.4 1278.2 166 1274.6 166.7C1269.7 167.6 1267.6 165.2 1263.6 163.5C1261.6 162.7 1259.4 162.3 1257.3 162.4C1252.3 162.6 1247.5 164.7 1242.9 166.4C1237 168.6 1230.7 170.7 1224.7 167.7C1219.6 165.2 1215.6 161.4 1209.6 161.4C1197.2 161.5 1188.5 173.4 1175.4 169.8C1165.7 167.1 1150.1 157.6 1142.9 170.4C1141.8 172.2 1144.4 173.7 1145.3 172Z" fill="#E8E8E8"/>
<path d="M1048.3 291.7C1055.4 286.1 1063.5 286.4 1071.3 290C1075.6 292 1080.2 293.9 1084.7 291.2C1087.3 289.6 1089 287.1 1092.1 286.2C1095.4 285.2 1098.9 285.9 1102.1 286.7C1107.8 288.1 1113.3 290.6 1119.2 291C1126.2 291.5 1132.6 288.5 1139.4 287.8C1146.7 287.1 1151.8 291.5 1158.6 292.5C1165.2 293.4 1170.3 288.1 1176.9 289.1C1184.9 290.3 1192.8 293 1200.7 295C1202.6 295.5 1203.4 292.6 1201.5 292.1C1193.2 290 1184.6 286.8 1176.1 285.9C1168.9 285.1 1163.7 291 1156.5 288.8C1149.8 286.8 1145 283.9 1137.8 284.9C1130.1 286 1123.1 289 1115.2 287.3C1109.1 286 1103.2 283.1 1096.9 282.7C1094.6 282.6 1092.2 282.8 1090 283.7C1087.2 284.8 1085.7 287.1 1083.1 288.6C1077.1 292.1 1069 284.7 1062.6 284.2C1056.5 283.7 1050.9 285.8 1046.1 289.5C1044.6 290.8 1046.8 292.9 1048.3 291.7Z" fill="#E8E8E8"/>
<path d="M475 73.5C476.9 73.5 476.9 70.5 475 70.5C473.1 70.5 473.1 73.5 475 73.5Z" fill="#E8E8E8"/>
<path d="M483.8 75.8C485.6 66.9 497.4 72.6 501.7 75.3C506.6 78.4 511.8 81.2 517.8 79.5C524.3 77.6 528.7 72 535.9 71.6C542.7 71.3 549.3 74.4 555.7 76.4C561.2 78.1 567 79.3 572.7 77.9C579.4 76.3 585.1 71.6 591.9 70.4C605.3 68.1 617.4 79 631 74.8C632.8 74.2 632.1 71.3 630.2 71.9C616 76.4 602.5 63.8 588.1 68.3C580.7 70.6 574.5 75.8 566.4 75.5C558.9 75.2 552.1 71.6 545 69.8C539.4 68.4 533.7 68 528.3 70.5C525.2 71.9 522.5 74.2 519.4 75.7C514.3 78.1 510 76.7 505.4 74.1C500.4 71.2 496.1 67.8 490 68.3C485.7 68.6 481.9 70.8 481.1 75.2C480.6 76.9 483.5 77.7 483.8 75.8Z" fill="#E8E8E8"/>
<path d="M492.9 659.7C504.8 654.7 516.8 663.6 528.8 664.2C535 664.5 541 663 547.1 661.8C554.8 660.3 561.4 660.2 568.8 663.3C573.3 665.2 577.4 666.4 582 664.6C584.6 663.6 586.8 661.9 589.4 661C592.3 660 595.3 659.8 598.4 659.8C609.1 660 619.8 663.7 630 658.9C631.7 658.1 630.2 655.5 628.5 656.3C617.6 661.4 605.5 655.8 594 657C588.5 657.6 584.9 660.8 579.8 662.3C573.7 664.1 567.7 658.9 561.7 658C548.8 656 536.6 663.2 523.6 660.6C513.2 658.5 502.7 652.4 492.1 656.9C490.4 657.6 491.2 660.5 492.9 659.7Z" fill="#E8E8E8"/>
<path d="M276.7 512.4C285.426 512.4 292.5 505.326 292.5 496.6C292.5 487.874 285.426 480.8 276.7 480.8C267.974 480.8 260.9 487.874 260.9 496.6C260.9 505.326 267.974 512.4 276.7 512.4Z" fill="#2E5077"/>
<path d="M1196.4 403.8C1202.53 403.8 1207.5 398.83 1207.5 392.7C1207.5 386.57 1202.53 381.6 1196.4 381.6C1190.27 381.6 1185.3 386.57 1185.3 392.7C1185.3 398.83 1190.27 403.8 1196.4 403.8Z" fill="#2E5077"/>
<path d="M1096.5 17.1C1101.03 17.1 1104.7 13.4287 1104.7 8.90001C1104.7 4.37128 1101.03 0.700012 1096.5 0.700012C1091.97 0.700012 1088.3 4.37128 1088.3 8.90001C1088.3 13.4287 1091.97 17.1 1096.5 17.1Z" fill="#2E5077"/>
<path d="M735.3 728.2C740.933 728.2 745.5 723.633 745.5 718C745.5 712.367 740.933 707.8 735.3 707.8C729.666 707.8 725.1 712.367 725.1 718C725.1 723.633 729.666 728.2 735.3 728.2Z" fill="#2E5077"/>
<path d="M265.1 148.9C271.562 148.9 276.8 143.662 276.8 137.2C276.8 130.738 271.562 125.5 265.1 125.5C258.638 125.5 253.4 130.738 253.4 137.2C253.4 143.662 258.638 148.9 265.1 148.9Z" fill="#23D3FA"/>
<path d="M668.5 559.4C672.2 559.4 675.2 556.4 675.2 552.7C675.2 549 672.2 546 668.5 546C664.8 546 661.8 549 661.8 552.7C661.8 556.4 664.8 559.4 668.5 559.4Z" fill="#23D3FA"/>
<path d="M1300.9 616.4C1306.53 616.4 1311.1 611.833 1311.1 606.2C1311.1 600.567 1306.53 596 1300.9 596C1295.27 596 1290.7 600.567 1290.7 606.2C1290.7 611.833 1295.27 616.4 1300.9 616.4Z" fill="#23D3FA"/>
<path d="M189.1 785C193.297 785 196.7 781.597 196.7 777.4C196.7 773.203 193.297 769.8 189.1 769.8C184.903 769.8 181.5 773.203 181.5 777.4C181.5 781.597 184.903 785 189.1 785Z" fill="#23D3FA"/>
<path d="M499.9 194.4C491.2 212.1 482.4 229.8 473.7 247.5C509.7 295.8 545.7 344 581.7 392.3C591 378.2 600.2 363.8 609.5 349.3C631.4 314.9 652.3 280.9 672.3 247.2C665.5 229.9 658.6 212.5 651.8 195.2C647.4 192.9 643 190.7 638.6 188.4C596 188.5 553.4 188.6 510.9 188.7C507.1 190.7 503.5 192.6 499.9 194.4Z" fill="white"/>
<path d="M474.9 248.3C482.5 231.6 490.299 215 498.299 198.5C499.099 196.8 496.6 195.2 495.7 197C487.7 213.5 479.899 230.1 472.299 246.8C471.499 248.5 474.1 250.1 474.9 248.3Z" fill="black"/>
<path d="M472.9 250.1C508.1 298.4 544 346.1 580.6 393.4C581.8 394.9 583.9 392.8 582.7 391.3C546.3 344.2 510.6 296.7 475.5 248.6C474.4 247.1 471.8 248.6 472.9 250.1Z" fill="black"/>
<path d="M499 196.8C503.2 194.6 507.3 192.3 511.5 190.1C513.2 189.2 511.7 186.6 510 187.5C505.8 189.7 501.7 192 497.5 194.2C495.7 195.2 497.3 197.7 499 196.8Z" fill="black"/>
<path d="M514 190.3C545.2 190.3 576.5 190.3 607.7 190.3C609.6 190.3 609.6 187.3 607.7 187.3C576.5 187.3 545.2 187.3 514 187.3C512.1 187.3 512.1 190.3 514 190.3Z" fill="black"/>
<path d="M673.7 246.9C667.4 230.2 660.9 213.7 654.2 197.1C653.5 195.3 650.6 196.1 651.3 197.9C658 214.4 664.5 231 670.8 247.7C671.5 249.5 674.4 248.7 673.7 246.9Z" fill="black"/>
<path d="M670.4 248.4C641.1 296.4 611.2 344.1 580.7 391.4C579.6 393 582.2 394.5 583.3 392.9C613.8 345.6 643.7 298 673 249.9C674 248.3 671.4 246.7 670.4 248.4Z" fill="black"/>
<path d="M652.4 194C648.9 191.8 645.4 189.5 641.9 187.3C640.3 186.3 638.8 188.8 640.4 189.9C643.9 192.1 647.4 194.4 650.9 196.6C652.6 197.7 654.1 195.1 652.4 194Z" fill="black"/>
<path d="M638.5 187C612.4 187 586.3 187 560.3 187C558.4 187 558.4 190 560.3 190C586.4 190 612.5 190 638.5 190C640.4 190 640.4 187 638.5 187Z" fill="black"/>
<path d="M476.1 249.8C494 242.1 511.9 234.4 529.8 226.7C531.6 225.9 530 223.4 528.3 224.1C510.4 231.8 492.5 239.5 474.6 247.2C472.9 248 474.4 250.6 476.1 249.8Z" fill="black"/>
<path d="M499.5 195.9C510.5 197.6 521.3 200 532 203C533.9 203.5 534.7 200.6 532.8 200.1C522.1 197 511.3 194.7 500.3 193C498.4 192.7 497.5 195.6 499.5 195.9Z" fill="black"/>
<path d="M531.2 202.5C533.6 210 535.7 217.5 537.5 225.2C537.9 227.1 540.8 226.3 540.4 224.4C538.6 216.7 536.5 209.2 534.1 201.7C533.5 199.9 530.6 200.6 531.2 202.5Z" fill="black"/>
<path d="M535.8 202.8C562.6 202.8 589.3 202.8 616.1 202.8C618 202.8 618 199.8 616.1 199.8C589.3 199.8 562.6 199.8 535.8 199.8C533.9 199.8 533.9 202.8 535.8 202.8Z" fill="black"/>
<path d="M614.8 203.4C613.8 208.9 612.8 214.5 611.8 220C611.5 221.9 614.4 222.7 614.7 220.8C615.7 215.3 616.7 209.7 617.7 204.2C618 202.3 615.1 201.5 614.8 203.4Z" fill="black"/>
<path d="M539.1 225.4C562.5 225.4 585.9 225.4 609.4 225.4C611.3 225.4 611.3 222.4 609.4 222.4C586 222.4 562.6 222.4 539.1 222.4C537.2 222.4 537.2 225.4 539.1 225.4Z" fill="black"/>
<path d="M619 202.8C629.9 200.5 640.7 198.2 651.6 195.9C653.5 195.5 652.7 192.6 650.8 193C639.9 195.3 629.1 197.6 618.2 199.9C616.3 200.3 617.1 203.2 619 202.8Z" fill="black"/>
<path d="M613.999 224.5C624.099 226.1 633.5 231.8 642.7 236.1C652.5 240.7 662.199 245.3 671.999 249.9C673.699 250.7 675.299 248.1 673.499 247.3C663.099 242.4 652.8 237.6 642.4 232.7C633.6 228.5 624.499 223.2 614.799 221.6C612.899 221.3 612.099 224.2 613.999 224.5Z" fill="black"/>
<path d="M540 230C553 283.6 565.9 337.3 578.9 390.9C579.4 392.8 582.2 392 581.8 390.1C568.8 336.5 555.9 282.8 542.9 229.2C542.4 227.3 539.5 228.1 540 230Z" fill="black"/>
<path d="M609.8 233.6C597.6 285.2 587.5 337.4 579.7 389.9C579.4 391.8 582.3 392.6 582.6 390.7C590.4 338.2 600.5 286.1 612.7 234.4C613.2 232.5 610.3 231.7 609.8 233.6Z" fill="black"/>
<path d="M610.8 133.5C615.3 122 617.8 109.9 618.2 97.5C618.3 95.6 615.3 95.6 615.2 97.5C614.8 109.6 612.3 121.4 607.9 132.7C607.2 134.5 610.1 135.2 610.8 133.5Z" fill="black"/>
<path d="M631.3 135.5C640.9 124.6 651.7 115 663.8 106.9C665.4 105.8 663.9 103.2 662.3 104.3C650 112.5 638.9 122.3 629.2 133.4C627.9 134.8 630 136.9 631.3 135.5Z" fill="black"/>
<path d="M651 154C663.4 150.3 676.2 148.9 689.1 149.9C691 150 691 147 689.1 146.9C675.9 145.9 662.9 147.3 650.2 151.1C648.4 151.7 649.1 154.6 651 154Z" fill="black"/>
<path d="M440.3 83.9C441.5 103.7 430.4 122.6 412.6 131.2C411.6 131.7 411.7 133.2 412.6 133.8C428.9 143.6 436.4 161.6 440.7 179.3C441.2 181.2 444 180.4 443.6 178.5C439.1 160 431.1 141.3 414.1 131.2C414.1 132.1 414.1 132.9 414.1 133.8C432.8 124.7 444.6 104.6 443.3 83.9C443.2 82 440.2 82 440.3 83.9Z" fill="#E8E8E8"/>
<path d="M441.4 83.9C440.1 104.7 451.9 124.8 470.6 133.8C470.6 132.9 470.6 132.1 470.6 131.2C453.5 141.4 445.5 160.1 441 178.7C440.5 180.6 443.4 181.4 443.9 179.5C448.2 161.7 455.7 143.6 472.1 133.8C473 133.3 473.1 131.7 472.1 131.2C454.3 122.6 443.1 103.7 444.3 83.9C444.5 82 441.5 82 441.4 83.9Z" fill="#E8E8E8"/>
<path d="M928.3 834.6C931.8 833.1 936.6 830.9 942.1 827.8C951.3 822.7 955.9 820.1 958.7 816C962.3 810.6 960.9 807.7 965.6 802.3C966.3 801.4 969.6 797.9 973.9 796C981.3 792.9 988.2 796.6 999.7 800.7C1010.3 804.5 1018.6 806.3 1035.2 810C1041.8 811.5 1049.8 813 1061.4 816.6C1064.7 817.6 1067.3 818.5 1069.1 819.1C1069.3 821.2 1069.4 826.6 1065.9 831.5C1064.3 833.7 1062.1 835.5 1058.6 837.1C1050.5 840.9 1042.8 840.2 1036.3 839.9C1022.3 839.3 1028.1 841.3 995.1 841.9C987.9 842 982 842 977.9 842C972.8 845.5 967.7 849.1 962.5 852.8C953.7 859.2 945.3 865.6 937.3 871.9C934.3 859.5 931.3 847 928.3 834.6Z" fill="black"/>
<path d="M886.6 706.6C879.4 710.4 878.6 711.8 851.8 734.6C810 770.1 805.4 772 767.5 805.1C731.2 836.7 724.4 844.6 717.5 855C700.3 881.3 696.5 903.3 695.4 914C693.9 928.4 691.9 948.4 704.6 964.2C712.6 974.1 723 978.2 726.5 979.5C737 983.5 745.6 983 761.1 981.9C781.7 980.4 797.4 976.4 803.6 974.7C810.4 972.8 826.2 968.1 846 958.3C864.6 949.1 872.6 942.3 898 925.2C909.3 917.6 926 906.5 947 893.7C948.3 883.7 947.2 875.9 946.1 871C943.5 859.4 938.2 851.4 932.3 842.6C927.5 835.4 922.9 829.9 919.7 826.3C927.2 820.6 937 812.4 947.3 801.4C954.2 794 965.1 782.2 974.2 765.6C985.4 745.2 996.6 724.6 989.4 710.4C978.1 688.1 924.3 687.1 886.6 706.6Z" fill="white"/>
<path opacity="0.18" d="M976.2 717.5C970.5 730.7 961.1 749.4 946.1 769.4C924.3 798.3 902.3 814.3 869.1 838C775.2 905 750 920.3 752.8 926.7C756.6 935.4 809.5 919.8 817.2 917.5C873.4 900.9 914.8 875.3 940.7 856.6C934.1 846.5 927.5 836.4 920.9 826.4C929 820.6 940.2 811.4 950.7 797.7C956.5 790.2 965.3 778.6 971 761.1C976.8 743.7 977 728.2 976.2 717.5Z" fill="#9B9797"/>
<path d="M886.2 706.5C850.6 733 815.9 760.8 782.5 789.9C766.5 803.8 750.5 817.7 735.5 832.6C722.2 845.8 709.8 860.4 702.3 877.8C694.5 895.8 692.3 916.6 694.2 936.1C695.8 952.2 701.7 968.4 716.4 976.8C731.8 985.5 751.2 984.6 768.2 982.8C789.1 980.7 809.7 975.6 829.2 967.7C872.7 950 906.8 916.9 947.9 895C949.6 894.1 948.1 891.5 946.4 892.4C912.1 910.7 882.9 937.1 848.5 955.4C830.5 965 811.1 972 791.1 976.3C772.6 980.2 751.8 983.2 733 979.6C724.2 977.9 715.7 974.3 709.4 967.7C703.3 961.2 700 952.7 698.3 944C694.6 925.1 696.3 903.7 702.5 885.5C708.7 867.3 720.8 852 734 838.4C747.7 824.3 762.7 811.3 777.4 798.4C812.9 767.2 849.7 737.4 887.7 709.2C889.2 708 887.8 705.4 886.2 706.5Z" fill="black"/>
<path d="M788.2 911.5C821 898.8 850.7 879.8 878.9 859C892.8 848.8 906.5 838.2 920.1 827.6C933.5 817.1 946.3 806 956.7 792.5C957.9 791 955.3 789.5 954.1 791C943.5 804.8 930.2 815.9 916.6 826.6C903.2 837.1 889.7 847.5 875.9 857.6C848.3 877.8 819.4 896.4 787.4 908.7C785.6 909.3 786.4 912.2 788.2 911.5Z" fill="black"/>
<path d="M918.6 827.3C937.9 843.5 948.1 868.6 945.4 893.7C945.2 895.6 948.2 895.6 948.4 893.7C951.1 867.9 940.5 841.9 920.7 825.2C919.3 823.9 917.2 826 918.6 827.3Z" fill="black"/>
<path d="M945.2 865.8C950.9 864.1 955.9 859.3 960.7 855.9C966.7 851.7 972.6 847.5 978.6 843.3C980.2 842.2 978.7 839.6 977.1 840.7C971.7 844.5 966.2 848.4 960.8 852.2C955.8 855.7 950.3 861.1 944.4 862.9C942.5 863.4 943.3 866.3 945.2 865.8Z" fill="black"/>
<path d="M928.7 836C940 831.3 950.4 824.9 959.8 817C961.3 815.7 959.1 813.6 957.7 814.9C948.8 822.5 938.8 828.6 928 833.1C926.2 833.9 927 836.8 928.7 836Z" fill="black"/>
<path d="M958.7 815.7C960.6 815.7 960.6 812.7 958.7 812.7C956.8 812.7 956.8 815.7 958.7 815.7Z" fill="black"/>
<path d="M962.3 812.1C964 808.1 965.8 803.7 969 800.6C973.3 796.4 978.5 797 984 798.2C994.2 800.5 1004.2 803.7 1014.2 806.6C1023.5 809.2 1032.8 811.5 1042.4 812.6C1048 813.2 1052.7 813.9 1057.7 816.4C1061.4 818.2 1064.6 820 1068.7 820.4C1070.6 820.6 1070.6 817.6 1068.7 817.4C1063.2 816.9 1058.9 813.1 1053.7 811.4C1048.5 809.7 1042.7 809.8 1037.3 808.9C1025.5 807 1014 803.4 1002.6 800C997 798.4 991.4 796.8 985.7 795.5C981.5 794.6 977.1 793.5 972.9 794.8C965.6 797 962.1 804.8 959.4 811.3C958.7 813.1 961.6 813.9 962.3 812.1Z" fill="black"/>
<path d="M978.2 845.5C999.6 842.3 1020.8 841.8 1042.4 841.4C1049.9 841.3 1057.9 840.4 1063.9 835.5C1069 831.3 1071.9 825.2 1070.5 818.7C1070.1 816.8 1067.2 817.6 1067.6 819.5C1069.5 828.6 1061.3 835.3 1053.2 837.3C1044.9 839.3 1035.9 838.3 1027.4 838.5C1010.6 838.8 994 840.2 977.4 842.7C975.5 842.9 976.4 845.8 978.2 845.5Z" fill="black"/>
<path d="M1054.1 825.6C1061.5 820.3 1069 815 1076.4 809.7C1076.9 806.3 1078.5 798.9 1084.6 792.6C1086.4 790.7 1090.6 786.3 1096.9 785.1C1103.5 783.8 1108.6 786.8 1114.3 789.4C1123.5 793.6 1132.4 795.2 1150 798.6C1163.9 801.2 1170.9 802.5 1180.9 802C1194.5 801.2 1204.2 797.6 1210 803.3C1210.6 803.9 1213.1 806.6 1212.9 809.9C1212.6 814.1 1208.1 816.8 1204.5 818.9C1188.8 827.9 1180 830.5 1180 830.5C1157.8 837 1146.6 840.3 1137 841.1C1129.2 841.7 1118.1 842 1104.7 839.9C1100.8 853.3 1089 861.9 1077.9 861.2C1063.6 860.3 1050.4 844.2 1054.1 825.6Z" fill="black"/>
<path d="M910.5 737.2C912.7 730.5 916.8 722 924.5 719.2C929.5 717.4 934.1 718.6 935.6 719C944.9 721.3 964 718 1002.1 711.5C1021 708.3 1044.9 703.6 1072.4 696.6C1072.5 701.7 1072.4 708.4 1072.1 716.2C1071.4 733.7 1069.6 746.9 1069.2 750C1067.5 762.4 1064.5 783 1055.4 808C1053.1 814.4 1050.8 819.7 1049.2 823.3C1053.1 825.1 1057.3 827.5 1061.4 830.9C1078.3 844.4 1083.2 863.5 1084.8 871.6C1082.4 874.5 1078.8 878.8 1074.2 883.7C1055.6 903.5 1038.4 914.6 1005.6 934.9C985.4 947.4 970.6 956.5 946.9 970.5C918.1 987.5 894.8 1000.7 865.8 1009C858.6 1011.1 847.2 1013.9 832.8 1012.4C825.8 1011.7 813.2 1010.4 801.1 1001.6C785.6 990.4 780.7 974 778.7 966.8C774.2 950.7 775.9 935.6 780.1 919.9C783 908.9 793.5 872.4 830 831.3C837.3 823.1 858.1 804.6 899.5 767.6C909.5 758.7 917.7 751.4 923.2 746.6C919 743.4 914.8 740.3 910.5 737.2Z" fill="white"/>
<path opacity="0.18" d="M1046.5 709.5C1044.2 718.3 1040.5 731 1034.9 745.9C983.8 881.3 869.6 939.8 878.9 954.4C885.7 965.2 950.9 938.3 997.9 910C1033.1 888.8 1059.3 866.1 1076.8 849C1074 844.9 1069.7 839.3 1063.2 834C1056.9 828.9 1050.9 825.8 1046.4 823.9C1049.5 819.4 1053.6 812.6 1057.1 803.9C1059.4 798.3 1061.4 792.3 1064 780.1C1068.2 760.8 1069.9 745.5 1070.4 740.7C1071.6 729.2 1072.7 714.3 1072.5 696.7C1063.8 700.9 1055.2 705.2 1046.5 709.5Z" fill="#9B9797"/>
<path d="M1071 696.6C1071.1 715.5 1069.9 734.4 1067.3 753.2C1064.9 770.1 1061.9 787.5 1055.7 803.5C1049 820.8 1037.5 833.4 1023.6 845.3C1009.4 857.4 995.1 869.3 980.8 881.2C964.4 894.9 947.9 908.5 931.5 922.2C930 923.4 932.1 925.5 933.6 924.3C963.7 899.3 993.8 874.4 1023.7 849.1C1036.9 837.9 1048.9 826.3 1056.1 810.2C1063.1 794.6 1066.5 777.5 1069.2 760.7C1072.6 739.5 1074.2 718.1 1074 696.6C1074 694.6 1071 694.6 1071 696.6Z" fill="black"/>
<path d="M912.2 740C916.3 742.2 920.4 744.4 924.6 746.6C926.3 747.5 927.8 744.9 926.1 744C922 741.8 917.9 739.6 913.7 737.4C912 736.5 910.5 739.1 912.2 740Z" fill="black"/>
<path d="M924.6 745.4C889 774.4 851.6 803.1 821.9 838.3C796.3 868.6 775.2 907 775.3 947.7C775.3 965.6 780.2 984.3 793.4 997C806.6 1009.8 825.7 1014.8 843.7 1013.9C865.7 1012.8 886.6 1004.1 906.2 994.5C927.2 984.2 947.1 972 967.1 959.9C1008.3 934.9 1054.3 911.6 1085.2 873.5C1086.4 872 1084.3 869.9 1083.1 871.4C1057.2 903.4 1020.8 923.9 986.1 944.9C967 956.5 948.1 968.3 928.6 979.3C909.5 990.1 889.6 1000.4 868.5 1006.5C848.7 1012.2 826.6 1013.4 807.9 1003.5C789.9 994.1 780.7 975.9 778.8 956.1C775.1 916.1 795.2 876.3 819.5 845.9C849.8 808 889.4 777.8 926.8 747.4C928.2 746.3 926.1 744.2 924.6 745.4Z" fill="black"/>
<path d="M1048.5 824.5C1067.3 833.5 1080.4 851.3 1083.5 871.9C1083.8 873.8 1086.7 873 1086.4 871.1C1083.3 849.8 1069.5 831.1 1050.1 821.9C1048.3 821.1 1046.8 823.7 1048.5 824.5Z" fill="black"/>
<path d="M1054.5 827.1C1058.5 825.5 1061.7 822.8 1065.1 820.2C1069.1 817.1 1073.2 814.1 1077.2 811C1078.7 809.8 1077.2 807.2 1075.7 808.4C1072.1 811.1 1068.5 813.8 1064.9 816.6C1061.4 819.3 1057.9 822.6 1053.7 824.2C1052 824.9 1052.7 827.8 1054.5 827.1Z" fill="black"/>
<path d="M1078.7 809.8C1080.7 803.9 1083.1 798.1 1086.3 792.7C1090.7 785.3 1097.3 786.1 1104.7 788C1116.2 790.9 1127.2 795.3 1138.8 797.9C1161.3 802.9 1184.4 804.6 1207.4 803.1C1209.3 803 1209.3 800 1207.4 800.1C1180.3 801.9 1153 799.1 1126.8 791.7C1120.5 789.9 1114.4 787.6 1108.1 785.8C1103.3 784.4 1097.6 782.8 1092.6 783.8C1088.1 784.7 1085.5 788.1 1083.3 791.9C1080.2 797.3 1077.8 803.1 1075.8 809C1075.2 810.8 1078.1 811.6 1078.7 809.8Z" fill="black"/>
<path d="M1083 858.1C1090.5 852.4 1097.9 846.7 1105.4 841C1106.9 839.8 1105.4 837.2 1103.9 838.4C1096.4 844.1 1089 849.8 1081.5 855.5C1080 856.7 1081.5 859.3 1083 858.1Z" fill="black"/>
<path d="M1105.3 840.3C1129.7 845.6 1154.6 841.6 1177.7 832.8C1188.2 828.8 1200.2 824.3 1209.2 817.5C1215.5 812.8 1216.4 803.8 1208.1 800.6C1206.3 799.9 1205.5 802.8 1207.3 803.5C1211.8 805.2 1212.3 810.1 1209.2 813.5C1207.7 815.2 1205.6 816.3 1203.6 817.5C1199.5 819.8 1195.3 821.9 1191.1 823.9C1182.2 828.1 1173 831.7 1163.5 834.5C1144.8 839.9 1125.2 841.7 1106 837.5C1104.2 837 1103.4 839.9 1105.3 840.3Z" fill="black"/>
<path d="M844.7 408.4C859.9 395.8 882.6 380.6 912.9 371.6C927.1 367.4 944.9 362.2 968.5 364.2C1004.7 367.3 1029.6 385.1 1038.4 391.6C1052.2 401.7 1061.6 412.4 1067.4 419.9C1068.5 490 1070 560.2 1071.9 630.3C1072.5 651.9 1073.1 673.6 1073.8 695.2C1059.6 704 1039.7 713.9 1014.5 719.7C955.5 733.2 906.4 715.2 886.5 706.5C886.4 688.8 885.3 662.2 879.9 630.3C871.1 577.9 857.4 556.8 848.8 511.7C844.5 488.4 840.4 453.4 844.7 408.4Z" fill="#2E5077"/>
<path d="M1025.5 425.7C1020.6 431.1 1019.7 437.2 1020 460.6C1020.2 485.2 1021.5 502 1022.3 521.5C1022.9 535.6 1023.4 546.8 1023.1 561.4C1022.8 579.8 1021.6 594.9 1020.5 605C1010.7 616 1002 624.6 995.5 630.8C980.9 644.7 965 659.7 941.5 673.8C932.2 679.3 924.2 683.3 918.8 685.8C913.9 685 908.4 683.8 902.4 682.3C888.2 678.7 882.3 675.5 871.6 675.5C868.4 675.5 858.3 675.5 857.3 679.1C856.4 682.1 862 686.8 866.4 689.1C870.5 691.2 872.3 690.6 876.4 692.5C881 694.7 884 697.9 885.8 700.3C883.9 703 881 707.1 877.8 712.4C874.1 718.6 873.3 721 869 728.4C864.5 736.2 862.2 740.1 860.2 742.1C857.1 745 855.2 745.6 841.3 751.8C827.5 758 825.1 759.4 825.1 761.1C825.1 762.8 827.8 763.2 838.5 767.8C847.2 771.5 848 772.3 852.5 773.6C858.1 775.2 861.5 776.2 865.6 775.3C872.1 774 876.3 769.1 878.1 766.5C879 767.3 881.2 769 884.1 769.1C886.4 769.1 888.3 768.2 889.8 767C896.1 762.5 899.2 754.2 905.4 744.9C906.5 743.3 910.4 737.4 916.7 730.8C920.6 726.6 924.2 723.5 926.8 721.4C930.3 720.6 935.5 719.4 941.7 717.6C965.8 710.7 983.2 702.4 997.8 695.4C1006.3 691.3 1015.9 685.9 1035 675.2C1051.6 665.9 1060.2 660.7 1067.8 650.5C1068.6 649.4 1072.7 643.9 1076.3 635.8C1077.4 633.3 1081.3 624.4 1083.4 608.8C1084.4 601.9 1084.4 598.1 1084.5 576.5C1084.7 549 1084.7 552.3 1084.7 549.5C1084.6 509.2 1082.5 512.8 1081.8 475.8C1081.7 472.3 1081.6 462.8 1078.7 450.8C1075.6 437.8 1071.7 432 1069.5 429.1C1066.7 425.4 1063.3 421 1057.5 418.5C1046.9 413.8 1032.8 417.6 1025.5 425.7Z" fill="white"/>
<path opacity="0.25" d="M1057.6 418.4C1060 426.3 1062.9 437.7 1064.9 451.5C1067.3 468.2 1068.2 486.6 1062.8 534.7C1058.3 574.9 1056.1 595 1050.3 613.8C1042 640.6 1036 660.1 1017.7 675.5C1005.9 685.4 993 690 967.1 699.1C948.1 705.8 931.8 709.8 920.6 712.3C912.6 723.1 900.7 736.8 883.8 749.8C870.6 760 857.9 767 847.4 771.8C848.9 772.8 855.1 776.8 863.5 775.7C873.3 774.4 878.6 767.4 879.5 766.1C881.4 767.5 884.2 769 887.3 768.5C893.7 767.5 897.1 758.4 898.8 754.3C902.5 745.8 909.9 734.1 926.5 721.3C937.5 718.4 952.4 714 969.7 707.4C993.8 698.1 1010 689.1 1027.4 679.4C1055.3 663.8 1061.6 657.4 1066.2 651.2C1074.6 639.9 1078.1 628.3 1079.6 623.2C1082.3 614.1 1082.8 603.9 1083.8 584C1084.5 569.2 1084.5 557.8 1084.5 549.2C1084.5 534.4 1084.2 523.4 1083.9 513.9C1083.5 500.1 1082.7 483.9 1080.7 464.5C1079.2 450.4 1078.1 444.8 1074.9 438.5C1070 428.5 1062.7 422.1 1057.6 418.4Z" fill="#9B9797"/>
<path d="M1024 425.3C1018.8 438.3 1018.2 452.3 1018.5 466.2C1018.8 481.5 1019.6 496.7 1020.3 512C1021.7 543 1022.7 574.1 1019 605C1018.8 606.9 1021.8 606.9 1022 605C1025.6 574.8 1024.8 544.3 1023.4 514C1022.7 499 1021.9 484 1021.5 468.9C1021.1 454.4 1021.4 439.8 1026.9 426.1C1027.6 424.3 1024.7 423.5 1024 425.3Z" fill="black"/>
<path d="M1024.8 602.4C1015.6 607.5 1008.2 614.9 1001.1 622.6C993.4 630.9 985.7 639 977.1 646.4C959.5 661.7 939.7 674.3 918.5 684.1C916.7 684.9 918.3 687.5 920 686.7C940.4 677.3 959.5 665.3 976.6 650.8C985.1 643.7 992.9 635.9 1000.4 627.8C1008.2 619.3 1016 610.7 1026.2 605.1C1028 604 1026.5 601.4 1024.8 602.4Z" fill="black"/>
<path d="M919.2 684.3C908.2 682 897.1 679.6 886.1 677.1C880.6 675.9 875 674.4 869.4 673.4C865.9 672.8 862.2 672.5 859.1 674.5C854.3 677.6 854.3 683.3 858.6 686.7C861.7 689.2 865.7 690.3 869.4 691.5C875.4 693.4 880.5 695.8 884.4 700.9C885.6 702.4 888.2 700.9 887 699.4C883.5 694.9 879.3 691.7 873.9 689.8C870.2 688.5 866.1 687.7 862.7 685.8C860.3 684.5 857.2 682.5 859 678.9C860.7 675.5 865 675.8 868.1 676.3C876.4 677.5 884.7 679.9 893 681.8C901.5 683.7 910 685.5 918.5 687.3C920.3 687.6 921.1 684.7 919.2 684.3Z" fill="black"/>
<path d="M882 701.4C877.6 709.5 873.1 717.5 868.7 725.6C866.5 729.5 864.6 733.7 862 737.5C859.3 741.4 855.7 743.4 851.5 745.4C843.6 749.1 835.1 752.1 827.5 756.4C824.1 758.4 821.9 762 824.8 765.5C828.4 769.8 835.5 768.1 840.3 767.3C846.9 766.2 853.2 764 859.2 761.2C871.7 755.2 882.3 745.8 889.9 734.2C891 732.6 888.4 731.1 887.3 732.7C880.6 743.1 871.3 751.5 860.4 757.3C855.2 760 849.6 762.2 843.9 763.5C840.7 764.3 837.3 765 833.9 765.1C830.8 765.3 830 765.7 828.5 762.6C826.6 760.8 826.8 759.6 829 759C829.7 758.7 830.3 758.4 831 758.1C837.4 755.1 843.9 752.2 850.3 749.2C855.3 746.9 860.2 744.9 863.6 740.4C867.6 735.1 870.4 728.8 873.6 723C877.3 716.3 881 709.6 884.6 703C885.5 701.2 882.9 699.7 882 701.4Z" fill="black"/>
<path d="M927.7 723.3C954.4 715.8 980.3 705.8 1005.1 693.4C1017.4 687.2 1029.4 680.5 1041.1 673.1C1051.6 666.5 1062.7 659.8 1070.2 649.7C1071.3 648.1 1068.7 646.6 1067.6 648.2C1059.8 658.8 1047.6 665.7 1036.6 672.5C1025.4 679.4 1013.8 685.8 1002 691.7C977.9 703.6 952.8 713.2 926.9 720.5C925.1 720.9 925.9 723.8 927.7 723.3Z" fill="black"/>
<path d="M1026 428C1034.3 411.7 1055.6 415.4 1066.1 427C1078.7 441 1079.3 461.5 1080.7 479.3C1083.7 518.2 1084.3 557.4 1081.9 596.3C1080.7 615.2 1077.9 635.2 1065.3 650.2C1064.1 651.7 1066.2 653.8 1067.4 652.3C1078.7 638.7 1082.6 621.5 1084.2 604.3C1086.3 582.3 1086.3 560 1086.1 537.9C1085.9 514.8 1084.8 491.6 1082.7 468.6C1081.1 451.3 1078 432.2 1063.7 420.7C1051.5 410.9 1031.1 411.2 1023.3 426.5C1022.5 428.2 1025.1 429.7 1026 428Z" fill="black"/>
<path d="M837.6 769C844.9 772.3 853.7 777.3 862 777.3C870 777.2 875.9 770.6 881.3 765.6C896.8 751.2 912.3 736.8 927.8 722.5C929.2 721.2 927.1 719.1 925.7 720.4C912.6 732.6 899.5 744.7 886.4 756.9C880.6 762.2 874.6 769.8 867.3 773.1C858.7 777 846.9 770 839.2 766.5C837.4 765.6 835.9 768.2 837.6 769Z" fill="black"/>
<path d="M878.3 766.9C881.6 773.1 888.9 770.6 892.6 766.3C899.9 757.7 905.6 747.3 911.8 738C912.9 736.4 910.3 734.9 909.2 736.5C905.3 742.3 901.4 748.1 897.5 753.9C895.3 757.1 885.6 774.4 880.9 765.4C880 763.7 877.4 765.2 878.3 766.9Z" fill="black"/>
<path d="M855.1 762C858.1 763.6 861.8 765.2 865.1 763.6C866.8 762.7 867.5 761.3 868.3 759.7C869.7 757 871.1 754.9 873.7 753.2C875.3 752.1 873.8 749.5 872.2 750.6C869.8 752.2 867.8 754.2 866.4 756.8C865.4 758.7 864.8 761 862.2 761.2C860.3 761.4 858.2 760.2 856.6 759.4C855 758.6 853.4 761.1 855.1 762Z" fill="black"/>
<path d="M834.6 190.6C831.1 197.7 827.6 209.6 826.5 213.5C824.9 219.1 821.3 232.2 819.3 249.6C818.2 259.2 817 269.7 818 283.6C818.5 290.2 819.2 300.6 823.1 313.5C825.7 322.3 829.5 335 839.8 348C848.8 359.3 859.1 366.4 867.3 370.7C872.5 370.8 878.8 370.5 885.8 369.2C898.4 366.8 908.2 362.1 914.8 358.3C915.7 363.4 916.9 368.8 918.4 374.4C921.5 386 925.3 396.2 929.1 405C933.2 404.3 938.1 403.1 943.3 400.7C959.8 393 967.7 378.8 970.5 372.9C969 367.1 967.8 360.8 966.7 354.3C962.9 330 963.9 308.3 966.3 290.7C968.4 291.4 971.8 292.3 976 292.1C984.2 291.6 989.8 287.1 992.6 284.7C995 282.7 1005.9 273 1005.5 258.6C1005.4 255.2 1005.2 246.9 999.3 242.4C993.8 238.3 986.4 239.8 981 240.9C974.8 242.2 970.2 244.8 967.4 246.6C969.5 239.7 973.9 222 967.4 201.4C966 197 956.7 169 929.3 156.9C892.1 140.3 847.4 164.9 834.6 190.6Z" fill="white"/>
<path opacity="0.24" d="M947.6 191.2C948.4 200.5 949 214 947.6 230C943.3 278.5 924.1 312.2 919.1 320.6C911.5 333.4 898.5 352 877.7 370.3C883.9 369.5 891 368.1 898.6 365.4C919.5 358 933.5 345.3 941.1 337C941.7 348.1 943.6 361.6 948.1 376.4C950.1 382.7 952.3 388.5 954.6 393.7C959.9 386.8 965.1 379.9 970.4 372.9C969.3 366.4 968.3 359.5 967.6 352.4C965.3 330.9 965.3 311.1 966.5 293.5C971 293.6 977.5 293.2 984.4 290.5C1014.6 278.5 1031.8 230.8 1015.5 204.8C1014.8 203.7 1011.2 198.1 1003.8 193.1C980.9 177.7 951.8 189.4 947.6 191.2Z" fill="#9B9797"/>
<path d="M827.3 210.5C825.3 203.6 822.5 190.4 825.4 174.2C826.3 169.2 829.4 153.1 840.4 140.4C856.5 121.9 876.7 125.4 902.9 116C919.5 110.1 942.3 97.7 965.4 68.5C963.3 79.3 961.2 90.2 959.1 101C962.7 102 974.8 104.6 987.2 98.5C1007.8 88.4 1009.6 64 1009.7 62.9C1012.2 68.5 1016.7 80.9 1014.7 96.7C1013.3 107.5 1009.4 115.6 1006.6 120.5C1007.8 121.8 1014.2 128.4 1021.6 127.4C1030.6 126.2 1039 113.9 1036.6 98C1038.6 103.9 1041 113.6 1040.4 125.5C1039.6 140 1034.8 150.9 1031.6 156.8C1032.4 157.5 1037.5 162.1 1044.7 161.2C1051 160.4 1056.4 155.8 1058.5 149.3C1058 156 1056.8 165.7 1052.9 176.8C1047.6 191.8 1043.2 193 1041 203.7C1037.5 220.5 1046.5 226.2 1044.1 241.2C1042.1 253.8 1033.9 261.7 1023.5 271.8C1004.6 290.1 982.9 300 964.7 305.5C965.5 299.9 966.4 294.3 967.2 288.7C969.5 290.1 973.5 292 978.5 291.8C988.7 291.4 995.1 282.3 998.5 277.4C1002.4 271.9 1008.9 262.5 1005.4 252.4C1002.5 244.2 994.8 240.8 994.1 240.5C985.1 236.7 973.5 240.1 966 249.3C961.8 232.8 957.7 216.4 953.5 199.9C939.3 190.9 925.2 182 911 173C904 171.7 884.9 169.1 863.5 178.6C841.9 188.2 830.9 204.5 827.3 210.5Z" fill="#23D3FA"/>
<path d="M825.8 210.1C817.3 241.9 812.2 275.7 820 308.2C826.4 334.6 842.6 364.7 870.2 373.3C872 373.9 872.8 371 871 370.4C843.3 361.8 827.8 330.5 822.1 304.1C815.4 273.1 820.5 241.1 828.6 210.9C829.2 209.1 826.3 208.3 825.8 210.1Z" fill="black"/>
<path d="M872.4 372.8C918.5 368.1 957 334.8 967.8 289.6C968.2 287.7 965.4 286.9 964.9 288.8C954.4 332.5 917.3 365.2 872.4 369.8C870.5 370 870.4 373 872.4 372.8Z" fill="black"/>
<path d="M965.2 290.4C985.8 303 1005.9 276.6 1007.2 258.1C1007.9 248.3 1003.4 240.8 993.7 238C984.7 235.4 974.9 238.1 968.5 244.9C967.2 246.3 969.3 248.4 970.6 247C975.9 241.3 983.9 238.8 991.6 240.5C995.6 241.4 1000 243.6 1002.3 247.2C1004.8 251.1 1004.5 256.5 1003.9 260.8C1001.5 276.3 984.3 298.5 966.7 287.7C965.1 286.8 963.5 289.4 965.2 290.4Z" fill="black"/>
<path d="M965 290.2C961.1 317.9 962.5 346 969.1 373.2C969.6 375.1 972.5 374.3 972 372.4C965.5 345.7 964.1 318.1 967.9 291C968.1 289.1 965.2 288.3 965 290.2Z" fill="black"/>
<path d="M913.3 358.7C916.4 374.9 921.2 390.6 927.8 405.8C928.6 407.6 931.2 406 930.4 404.3C923.9 389.4 919.2 373.9 916.2 357.9C915.8 356 913 356.8 913.3 358.7Z" fill="black"/>
<path d="M929.9 406.2C949.2 403.1 965.5 389.8 972.8 371.7C973.5 369.9 970.6 369.1 969.9 370.9C963 388.1 947.3 400.4 929.1 403.3C927.2 403.6 928 406.5 929.9 406.2Z" fill="black"/>
<path d="M915.7 362.2C919.8 362.4 922.6 359.6 925.7 357.2C929.8 354 933.7 350.6 937.3 347C944 340.3 949.4 332.6 952.9 323.8C953.6 322 950.7 321.2 950 323C946.9 330.8 942.1 337.7 936.3 343.7C933.7 346.5 930.9 349 928 351.5C924.8 354.2 920.2 359.4 915.7 359.2C913.8 359.1 913.8 362.1 915.7 362.2Z" fill="black"/>
<path d="M915.9 360.6C924.4 355.1 932.3 348.8 939.7 341.9C941.1 340.6 939 338.4 937.6 339.8C930.4 346.6 922.7 352.7 914.4 358.1C912.7 359 914.3 361.6 915.9 360.6Z" fill="black"/>
<path d="M857.1 215.9C851.5 241.4 848.3 267.3 847.6 293.4C847.6 294.9 849.6 295.4 850.4 294.2C854.3 288 858.2 281.7 862.1 275.5C863.1 273.9 860.5 272.3 859.5 274C855.6 280.2 851.7 286.5 847.8 292.7C848.7 293 849.7 293.2 850.6 293.5C851.3 267.7 854.5 242 860 216.8C860.4 214.8 857.5 214 857.1 215.9Z" fill="black"/>
<path d="M861.1 331C858.7 326.5 857.1 321.7 856.7 316.6C856.4 313 857.2 298.4 864 304.2C867.6 307.3 867.1 314.1 867.2 318.6C867.2 320.7 867.2 322.9 867 325C866.9 326.5 866.7 328 866.4 329.4C863.8 331.2 861.8 331.1 860.5 329.2C859.2 327.8 857 329.9 858.4 331.3C862.7 335.7 868.3 335.9 869.5 329C870.4 324.1 870.4 318.9 870 314C869.7 310.1 869.7 304.5 866.8 301.5C862.5 297.1 856.4 301.2 854.7 305.9C851.6 314.3 854.6 324.9 858.6 332.5C859.4 334.2 862 332.7 861.1 331Z" fill="black"/>
<path d="M881.8 241C884.8 255.1 903.3 256.2 908.8 243.2C909.5 241.4 906.6 240.6 905.9 242.4C901.4 253 887 251 884.7 240.2C884.3 238.4 881.4 239.1 881.8 241Z" fill="black"/>
<path d="M875.9 206.3C879.7 197.8 889.5 193.7 898.5 195.6C907.8 197.6 914.9 204.8 919.5 212.7C920.5 214.4 923.1 212.9 922.1 211.2C916.8 202.1 908.4 194 897.6 192.4C887.9 191 877.5 195.6 873.3 204.7C872.5 206.6 875.1 208.1 875.9 206.3Z" fill="black"/>
<path d="M817.3 209.6C820 204 824.7 197.9 831.6 198C838.2 198.1 843 203.9 846.3 209C847.3 210.6 849.9 209.1 848.9 207.5C845.1 201.4 839.4 195.1 831.6 195C823.6 194.9 818 201.5 814.8 208.1C813.9 209.8 816.5 211.3 817.3 209.6Z" fill="black"/>
<path d="M835 254.9C836.768 254.9 838.2 248.319 838.2 240.2C838.2 232.081 836.768 225.5 835 225.5C833.233 225.5 831.8 232.081 831.8 240.2C831.8 248.319 833.233 254.9 835 254.9Z" fill="black"/>
<path d="M844.2 413.1C843.9 416.8 843.5 421.9 843.3 427.8C842.4 448 843.2 463.3 843.5 467.4C844.3 480.7 846.1 498.1 850.3 518.3C846.3 522.9 840.3 529.7 832.6 537.7C818 553 810.5 560.8 798.5 568.9C785.1 577.9 775.8 580.7 770.8 582C764.5 583.5 758.5 584.9 751.2 583.3C739.3 580.6 732.2 571.8 729.6 568.4C723 560 721.5 551.8 718.8 535.8C716.8 524.1 716.4 515.2 715.8 498C715.5 489.8 715.1 479.8 715.3 466.4C715.5 451.3 716.3 433.4 718.5 413.4C719.5 404.4 720.9 393.3 723.1 380.7C721.4 378.3 719.6 375.9 717.7 373.4C715.7 370.8 713.8 368.3 711.8 365.8C706.7 370.1 701.7 374.5 696.6 378.8C695.3 379.3 693 380.1 690.2 379.8C684.9 379.3 681.8 375.6 680.7 374.4C675.8 368.8 676.5 361.7 676.7 360.3C683.6 352.8 690.5 345.4 697.5 337.9C697.6 333.6 698.2 328 699.9 321.8C701.2 317.2 702.8 313.4 704.3 310.2C705.6 307.6 707.4 304.7 709.7 301.8C713.8 296.4 718.2 292.6 721.8 290C718.9 291.3 718.2 291.3 718 291.1C717.5 290.3 722.2 284.4 728.8 283.8C732.5 283.4 735.4 284.8 737.4 285.7C740.5 287.2 742.6 289.1 743.9 290.5C750.1 285.2 756.3 279.9 762.5 274.7C764.7 276 766.9 277.5 769.1 279C774.2 282.5 778.8 286 782.9 289.4C781.4 291.3 779.5 293.4 777.1 295.5C773.1 299 769.1 301.1 766 302.5C767.9 303.1 771.3 304.5 773 307.8C774.7 311 774 314.5 773 318.9C772.3 321.9 771.4 324.3 770.7 325.9C771.1 330.1 771.3 335.8 770.1 342.2C768.2 352.7 763.8 360.5 760.8 365C760.7 368.9 760.6 375 760.8 382.5C761.6 413.4 766.1 431.5 769 454.3C770.7 467.3 772.4 486.6 771.9 510.9C774.2 509.4 777.5 507 781.2 503.9C790.6 496 796.6 488.1 804.5 476.5C812.3 465.2 817.4 456.8 824.3 445.6C828.6 438.3 835.5 427.2 844.2 413.1Z" fill="white"/>
<path opacity="0.24" d="M753.3 321.8C751.2 326.4 749.1 331.1 747 335.9C740.9 350.3 735.9 364.1 731.8 377.3C730.9 398.1 730.4 415.5 730 428.1C729.5 447.2 730.7 470 732.9 515.6C733.8 534.4 734.6 545.8 743.4 554.1C752.6 562.7 765.4 562.9 772.6 562.9C811 562.8 839.7 530.1 847.6 520.6C836.9 538.8 824.7 550.7 816.4 557.7C807 565.6 794.9 575.5 776.1 580.4C760.2 584.6 753 583.7 751.1 583.3C737.4 580 729.8 568.6 727.1 564.7C720.6 555 718.5 544.9 717.3 523.2C716.1 500.9 717.4 495 717.8 464.3C718.1 435 717 426.7 719.2 406.4C720.5 394.5 722.1 384.7 723.4 378.1C719.5 374 715.6 369.9 711.7 365.9C708.4 368.8 705 371.6 701.6 374.5C699.4 376.4 697.1 378.3 694.9 380.1C692.9 380.3 690 380.2 686.9 378.9C678.9 375.5 673.9 365.6 676.4 362.2C678 359.9 682.2 361.7 688 361.7C698 361.8 704.7 356.7 718 347.1C727.4 340.2 738.2 332.5 753.3 321.8Z" fill="#9B9797"/>
<path d="M842.9 412.3C819.8 444.2 802.7 480.8 773.5 508C772.1 509.3 774.2 511.4 775.6 510.1C805 482.7 822.2 445.9 845.5 413.8C846.7 412.3 844.1 410.8 842.9 412.3Z" fill="black"/>
<path d="M756.9 585.6C796.5 583 824.9 549.8 848.7 521.6C849.9 520.1 847.8 518 846.6 519.5C823.5 547.1 795.5 580.1 757 582.7C755 582.7 755 585.7 756.9 585.6Z" fill="black"/>
<path d="M738.1 303.9C738.3 311.8 743.5 318.6 751.1 320.8C753 321.3 753.8 318.4 751.9 317.9C745.6 316.1 741.3 310.4 741.1 303.9C741 302 738 302 738.1 303.9Z" fill="black"/>
<path d="M741.2 303C742.2 294.3 757.7 300.6 761.9 302.8C766 304.9 770.1 307 771 312C771.7 315.8 770.5 319.8 769.5 323.5C769 325.4 771.9 326.2 772.4 324.3C773.8 319.3 775.3 313.6 773.2 308.7C771.2 303.7 765.7 301.4 761.2 299.2C756.6 297 751.6 295.4 746.4 296C744.3 296.3 741.6 296.8 739.9 298.2C738.1 299.6 738.5 300.6 738.2 303.1C738 304.9 741 304.9 741.2 303Z" fill="black"/>
<path d="M768.5 322.9C768.2 330.5 769.9 337.9 768.1 345.5C766.4 352.5 763 359 759.6 365.3C758.7 367 761.3 368.5 762.2 366.8C765.7 360.2 769.2 353.5 771 346.3C772.9 338.5 771.2 330.8 771.5 322.9C771.6 320.9 768.6 320.9 768.5 322.9Z" fill="black"/>
<path d="M759.6 365.4C757.3 418.1 772.4 469.7 770 522.4C769.9 524.3 772.9 524.3 773 522.4C775.4 469.7 760.3 418.1 762.6 365.4C762.7 363.5 759.7 363.5 759.6 365.4Z" fill="black"/>
<path d="M710.5 366.5C713.5 370.7 716.7 374.7 720.3 378.4C721.6 379.8 723.7 377.7 722.4 376.3C719 372.7 715.9 369 713.1 365C711.9 363.4 709.3 364.9 710.5 366.5Z" fill="black"/>
<path d="M722 377.6C716.3 410.1 713.5 443.1 713.6 476.1C713.7 492.5 714.5 509 716.1 525.3C717.4 539.2 719 553.8 726.3 566C732.9 577.1 744.5 585.5 757.7 585.2C759.6 585.1 759.6 582.1 757.7 582.2C739.2 582.7 727.3 566.2 723 550C718.2 532.2 717.8 512.8 717.1 494.5C715.6 455.7 718.3 416.7 725 378.5C725.2 376.5 722.3 375.7 722 377.6Z" fill="black"/>
<path d="M703.1 332.7C693.7 340.6 684.6 348.9 676 357.6C674.6 359 676.8 361.1 678.1 359.7C686.8 351 695.8 342.7 705.2 334.8C706.7 333.6 704.6 331.5 703.1 332.7Z" fill="black"/>
<path d="M675.1 360.3C673.6 371.9 682.4 381.7 694.1 381.6C696 381.6 696 378.6 694.1 378.6C684 378.7 676.8 370.2 678.1 360.3C678.4 358.4 675.4 358.4 675.1 360.3Z" fill="black"/>
<path d="M677.9 359.6C688.4 359.9 695.7 369.3 693.5 379.5C693.1 381.4 696 382.2 696.4 380.3C699.1 368 690.5 357 677.9 356.6C676 356.6 676 359.6 677.9 359.6Z" fill="black"/>
<path d="M697.6 379.8C709 369.4 720.6 359.1 731.7 348.4C736.8 343.5 741.7 338.5 746.3 333.1C748.8 330.2 755.1 324.5 755.2 320.5C755.2 320 754.9 319.4 754.5 319.2C754.3 319.1 754.1 319 754 319C753.4 318.7 752.6 318.7 752.2 319.2C752.1 319.3 752 319.4 751.9 319.6C750.7 321.1 752.8 323.2 754 321.7C754.1 321.6 754.2 321.5 754.3 321.3C753.7 321.4 753.1 321.5 752.5 321.5C752.3 320.6 752 320.6 751.6 321.6C751.1 322.3 750.6 323 750 323.7C748.8 325.2 747.7 326.7 746.4 328.2C744.4 330.7 742.2 333.1 740.1 335.5C735.7 340.3 731.1 344.8 726.4 349.2C716.2 358.8 705.8 368.1 695.5 377.6C694 379 696.2 381.1 697.6 379.8Z" fill="black"/>
<path d="M698.9 338.3C699.6 333.5 700.3 328.7 701 323.9C701.5 320.3 701.9 316.3 703.9 313.1C708.5 305.7 715 311 718.5 316C720 318.1 721.4 320.4 722.9 322.5C723.7 323.7 727.6 328 727.1 329.5C727.6 329.1 728.1 328.8 728.5 328.4C728.3 328.4 728.2 328.4 728 328.4C726.1 328.3 726.1 331.3 728 331.4C728.2 331.4 728.3 331.4 728.5 331.4C729.2 331.4 729.8 330.9 729.9 330.3C730.6 327.8 728.9 326.3 727.6 324.3C725.1 320.6 722.7 316.8 720.1 313.2C717.4 309.5 713.9 305.9 708.9 306.4C704.1 306.9 701.2 310.6 699.7 314.9C697.2 322 697 330.1 695.9 337.5C695.7 339.4 698.6 340.2 698.9 338.3Z" fill="black"/>
<path d="M703.6 327C706.3 332.3 710.8 337.7 717.2 338.1C722.5 338.5 727.5 335.5 728.9 330.3C729.4 328.4 726.5 327.6 726 329.5C724.7 334.3 719.4 336.1 715 334.6C710.8 333.1 708.1 329.4 706.2 325.6C705.3 323.8 702.7 325.3 703.6 327Z" fill="black"/>
<path d="M707.3 307.5C707.8 302.6 713.4 301.3 717.2 302.6C721.2 303.9 724.3 307.5 727.1 310.4C729.3 312.7 733.6 315.9 734.2 319.1C735 323.4 729.6 326.3 726 327.4C724.2 327.9 724.9 330.8 726.8 330.3C731.2 329 737.6 325.1 738.3 319.9C738.6 317.8 737.3 316.7 735.9 315.2C733.1 312.2 730.4 309.3 727.5 306.4C723.6 302.4 718.6 298.1 712.6 299.1C708.1 299.8 704.8 302.8 704.3 307.4C704.1 309.4 707.1 309.4 707.3 307.5Z" fill="black"/>
<path d="M712.7 300.1C714.1 298.5 714.8 296.4 716.1 294.8C719.3 290.8 724.3 294.5 727.6 296.9C734 301.4 740.8 309.6 735 317.4C733.9 319 736.5 320.5 737.6 318.9C743.8 310.5 737.7 300.8 730.6 295.4C727.3 292.9 722.3 288.4 717.8 289.7C713.8 290.8 713.1 295.4 710.6 298.1C709.3 299.4 711.4 301.5 712.7 300.1Z" fill="black"/>
<path d="M722.8 291C726.3 286.7 730.9 282.2 736.3 286.7C739.9 289.6 742.2 293.7 743.5 298C744.1 299.8 746.9 299.1 746.4 297.2C744.7 291.4 740.8 284.7 735 282.3C729.1 279.9 724.2 284.6 720.7 288.9C719.5 290.3 721.6 292.5 722.8 291Z" fill="black"/>
<path d="M744.9 291.4C751.1 286.1 757.3 280.8 763.5 275.6C765 274.3 762.8 272.2 761.4 273.5C755.2 278.8 749 284.1 742.8 289.3C741.3 290.6 743.5 292.7 744.9 291.4Z" fill="black"/>
<path d="M767 304.2C772.9 299.9 778.6 295.3 783.9 290.3C785.3 289 783.2 286.9 781.8 288.2C776.6 293 771.2 297.5 765.5 301.6C763.9 302.7 765.4 305.3 767 304.2Z" fill="black"/>
<path d="M811.9 296.7C845.258 296.7 872.3 269.658 872.3 236.3C872.3 202.942 845.258 175.9 811.9 175.9C778.542 175.9 751.5 202.942 751.5 236.3C751.5 269.658 778.542 296.7 811.9 296.7Z" stroke="black" stroke-width="3" stroke-miterlimit="10"/>
<path d="M775.3 243.7C797.5 229.5 820.2 216.1 843.4 203.5C845.1 202.6 843.6 200 841.9 200.9C818.7 213.4 796 226.8 773.8 241.1C772.2 242.2 773.7 244.8 775.3 243.7Z" fill="black"/>
<path d="M777.8 269.9C796.1 256.5 814.6 243.6 833.5 231C835.1 229.9 833.6 227.3 832 228.4C813.2 241 794.6 254 776.3 267.3C774.7 268.4 776.2 271 777.8 269.9Z" fill="black"/>
</svg>
