<svg width="1080" height="1139" viewBox="0 0 1080 1139" fill="none" xmlns="http://www.w3.org/2000/svg">
<path d="M602.148 107.7C602.148 181.3 602.148 254.9 602.148 328.4C602.148 349.4 602.148 370.3 602.148 391.3C602.148 393.2 605.148 393.2 605.148 391.3C605.148 317.7 605.148 244.1 605.148 170.6C605.148 149.6 605.148 128.7 605.148 107.7C605.148 105.8 602.148 105.8 602.148 107.7Z" fill="#E8E8E8"/>
<path d="M602.148 106.6C681.248 107.9 760.348 110.1 839.448 113.2C841.348 113.3 841.348 110.3 839.448 110.2C760.348 107.1 681.248 104.9 602.148 103.6C600.248 103.6 600.248 106.6 602.148 106.6Z" fill="#E8E8E8"/>
<path d="M604.648 393.1C678.748 398.5 752.348 408.9 825.848 419.4C827.748 419.7 828.548 416.8 826.648 416.5C752.848 406 678.948 395.6 604.648 390.1C602.748 390 602.748 393 604.648 393.1Z" fill="#E8E8E8"/>
<path d="M837.948 113.8C837.948 193.5 837.948 273.1 837.948 352.8C837.948 375.4 837.948 397.9 837.948 420.5C837.948 422.4 840.948 422.4 840.948 420.5C840.948 340.8 840.948 261.2 840.948 181.5C840.948 158.9 840.948 136.4 840.948 113.8C840.948 111.9 837.948 111.9 837.948 113.8Z" fill="#E8E8E8"/>
<path d="M824.048 419.2C828.948 419.9 833.848 420.8 838.648 421.7C840.548 422.1 841.348 419.2 839.448 418.8C834.548 417.8 829.748 417 824.848 416.3C822.948 416.1 822.148 418.9 824.048 419.2Z" fill="#E8E8E8"/>
<path d="M605.048 238.8C645.248 239.3 685.248 243.3 725.048 248.8C744.548 251.5 764.048 254.5 783.448 257.5C802.048 260.4 820.948 264.6 839.848 263C841.748 262.8 841.748 259.8 839.848 260C820.248 261.6 800.548 257.1 781.348 254.1C761.548 251 741.748 248 721.948 245.3C683.148 240.1 644.248 236.2 605.048 235.7C603.048 235.7 603.048 238.7 605.048 238.8Z" fill="#E8E8E8"/>
<path d="M620.548 239.9C622.248 284.8 624.048 329.7 625.748 374.6C625.848 376.5 628.848 376.5 628.748 374.6C627.048 329.7 625.248 284.8 623.548 239.9C623.448 238 620.448 238 620.548 239.9Z" fill="#E8E8E8"/>
<path d="M629.348 376.3C697.548 384.6 765.848 391.8 834.148 398.9C836.048 399.1 836.048 396.1 834.148 395.9C765.848 388.7 697.548 381.5 629.348 373.3C627.448 373.1 627.448 376.1 629.348 376.3Z" fill="#E8E8E8"/>
<path d="M606.548 390.5C614.048 386.2 621.448 381.9 628.948 377.5C630.648 376.5 629.148 373.9 627.448 374.9C619.948 379.2 612.548 383.5 605.048 387.9C603.348 388.9 604.848 391.5 606.548 390.5Z" fill="#E8E8E8"/>
<path d="M626.648 222.4C687.448 227.1 748.348 231.7 809.148 236.4C811.048 236.5 811.048 233.5 809.148 233.4C748.348 228.7 687.448 224.1 626.648 219.4C624.748 219.2 624.748 222.2 626.648 222.4Z" fill="#E8E8E8"/>
<path d="M619.648 201C685.848 201.3 752.048 203.2 818.248 206.7C820.148 206.8 820.148 203.8 818.248 203.7C752.148 200.2 685.948 198.2 619.648 198C617.648 198 617.648 201 619.648 201Z" fill="#E8E8E8"/>
<path d="M631.448 170.1C677.048 170.2 722.648 170.3 768.248 170.4C770.148 170.4 770.148 167.4 768.248 167.4C722.648 167.3 677.048 167.2 631.448 167.1C629.448 167.1 629.448 170.1 631.448 170.1Z" fill="#E8E8E8"/>
<path d="M621.048 140.3C683.148 139.5 745.148 141.2 807.148 145.3C809.048 145.4 809.048 142.4 807.148 142.3C745.248 138.2 683.148 136.5 621.048 137.3C619.048 137.3 619.048 140.3 621.048 140.3Z" fill="#E8E8E8"/>
<path d="M775.048 387C773.748 384.1 774.148 382.5 776.248 382C777.048 381.7 777.848 381.4 778.648 381.3C779.648 381.1 780.648 380.9 781.548 380.7C783.348 380.2 785.048 379.4 786.348 378C788.748 375.5 789.348 372.3 788.748 369C788.648 368.4 787.948 367.8 787.348 367.9C779.048 368.6 779.748 355.6 788.248 358.2C789.748 358.7 790.648 356.7 789.748 355.7C783.148 348.6 770.448 331.3 779.148 321.8C781.448 319.3 785.548 317.7 788.648 319.7C790.548 320.9 791.748 323.2 792.748 325.2C794.148 327.7 795.348 330.5 797.748 332.1C803.148 335.7 808.648 330.7 809.548 325.3C810.348 320.3 807.948 315.3 807.948 310.3C807.948 306.8 808.648 302.9 811.248 300.3C813.948 297.6 818.548 296.7 821.748 299.3C822.848 300.2 824.748 299.4 824.248 297.8C823.248 294.5 822.848 291 824.748 287.9C826.948 284.5 832.248 283.2 834.448 287.4C835.348 289.1 837.948 287.6 837.048 285.9C834.748 281.6 829.148 280.6 825.048 283.1C819.848 286.3 819.748 293.3 821.348 298.5C822.148 298 823.048 297.5 823.848 297C815.948 290.4 806.448 297.9 805.148 306.6C804.748 309.2 804.948 311.8 805.348 314.4C805.948 318.5 808.148 324 805.448 327.8C799.848 335.7 795.348 322.8 792.748 319.6C787.048 312.5 776.748 316.2 774.148 324.3C770.348 336 779.948 349.7 787.448 357.7C787.948 356.9 788.448 356 788.948 355.2C784.248 353.7 778.548 356.4 777.748 361.6C777.048 367 782.148 371.1 787.148 370.7C786.648 370.3 786.148 370 785.748 369.6C787.748 380.3 772.648 375.6 770.048 383.5C768.748 387.5 772.648 391.1 776.448 389.4C778.348 388.7 776.848 386.1 775.048 387Z" fill="#E8E8E8"/>
<path d="M769.648 460.2C769.648 490.9 769.648 521.6 769.648 552.2C769.648 554.1 772.648 554.1 772.648 552.2C772.648 521.5 772.648 490.8 772.648 460.2C772.648 458.3 769.648 458.3 769.648 460.2Z" fill="#E8E8E8"/>
<path d="M771.448 460.1C809.148 468.5 846.748 476.9 884.448 485.2C886.348 485.6 887.148 482.7 885.248 482.3C847.548 473.9 809.948 465.5 772.248 457.2C770.348 456.8 769.548 459.7 771.448 460.1Z" fill="#E8E8E8"/>
<path d="M772.748 554.8C805.648 565.5 838.648 575.9 871.748 586C873.648 586.6 874.348 583.7 872.548 583.1C839.448 573 806.448 562.6 773.548 551.9C771.748 551.3 770.948 554.2 772.748 554.8Z" fill="#E8E8E8"/>
<path d="M883.948 483.9C883.948 518.1 883.948 552.3 883.948 586.4C883.948 588.3 886.948 588.3 886.948 586.4C886.948 552.2 886.948 518 886.948 483.9C886.948 481.9 883.948 481.9 883.948 483.9Z" fill="#E8E8E8"/>
<path d="M869.948 586.1C875.248 586.8 880.548 587.6 885.748 588.3C887.648 588.6 888.448 585.7 886.548 585.4C881.248 584.7 875.948 583.9 870.748 583.2C868.848 583 868.048 585.9 869.948 586.1Z" fill="#E8E8E8"/>
<path d="M780.048 472C778.548 495.9 778.248 519.8 779.048 543.7C779.148 545.6 782.148 545.6 782.048 543.7C781.248 519.8 781.548 495.9 783.048 472C783.148 470.1 780.148 470.1 780.048 472Z" fill="#E8E8E8"/>
<path d="M780.248 547.9C811.348 556.2 843.648 562.8 873.148 575.8C874.948 576.6 876.448 574 874.648 573.2C844.848 560.1 812.348 553.3 780.948 545C779.248 544.5 778.448 547.4 780.248 547.9Z" fill="#E8E8E8"/>
<path d="M780.648 472C812.948 477.5 845.148 483.6 877.248 490.1C879.148 490.5 879.948 487.6 878.048 487.2C845.948 480.6 813.748 474.6 781.448 469.1C779.548 468.8 778.748 471.7 780.648 472Z" fill="#E8E8E8"/>
<path d="M875.748 487.8C873.448 516.2 872.448 544.7 872.548 573.2C872.548 575.1 875.548 575.1 875.548 573.2C875.348 544.7 876.448 516.2 878.748 487.8C878.848 485.9 875.848 485.9 875.748 487.8Z" fill="#E8E8E8"/>
<path d="M782.348 508.5C793.848 514.1 805.848 518.7 818.148 522.3C820.048 522.8 820.848 519.9 818.948 519.4C806.848 515.9 795.148 511.5 783.848 505.9C782.148 505.1 780.648 507.7 782.348 508.5Z" fill="#E8E8E8"/>
<path d="M827.148 480.3C822.348 493.8 818.448 507.6 815.348 521.7C814.948 523.6 817.848 524.4 818.248 522.5C821.348 508.5 825.248 494.7 830.048 481.1C830.648 479.2 827.748 478.5 827.148 480.3Z" fill="#E8E8E8"/>
<path d="M823.948 497.5C832.948 495.8 840.048 505.6 841.548 513.3C843.148 521.5 839.448 529 833.448 534.6C827.048 540.5 818.148 542.3 810.348 537.8C802.348 533.2 799.848 522.7 803.348 514.6C804.148 512.8 801.548 511.3 800.748 513.1C796.948 521.9 798.748 532.7 806.448 538.8C814.748 545.4 826.348 544.6 834.248 537.9C842.548 530.9 847.148 520.6 843.748 510C841.048 501.4 832.848 492.9 823.148 494.7C821.248 495 822.048 497.9 823.948 497.5Z" fill="#E8E8E8"/>
<path d="M841.348 548.2C845.148 550.6 848.548 553.3 851.548 556.5C852.848 557.9 855.048 555.8 853.648 554.4C850.448 551 846.748 548.1 842.848 545.6C841.248 544.6 839.748 547.2 841.348 548.2Z" fill="#E8E8E8"/>
<path d="M850.948 533.1C854.248 533.9 857.448 534.6 860.748 535.4C862.648 535.8 863.448 532.9 861.548 532.5C858.248 531.7 855.048 531 851.748 530.2C849.848 529.8 849.048 532.6 850.948 533.1Z" fill="#E8E8E8"/>
<path d="M848.048 500.9C852.148 500.7 855.748 499.3 858.948 496.8C860.448 495.6 858.348 493.5 856.848 494.7C854.348 496.7 851.248 497.8 848.048 498C846.048 498 846.048 501 848.048 500.9Z" fill="#E8E8E8"/>
<path d="M828.948 468.3C828.848 466.1 828.548 462.9 830.848 461.7C833.048 460.5 833.648 462.7 833.548 464.3C833.448 467.2 832.548 470 833.548 472.8C834.248 474.6 837.148 473.8 836.448 472C834.948 468.1 838.748 461.9 834.348 459.1C832.248 457.7 829.548 458.5 827.848 460.2C825.748 462.4 825.748 465.5 825.848 468.3C825.948 470.2 828.948 470.2 828.948 468.3Z" fill="#E8E8E8"/>
<path d="M148.748 1.5C148.748 56.8 148.748 112 148.748 167.3C148.748 169.2 151.748 169.2 151.748 167.3C151.748 112 151.748 56.8 151.748 1.5C151.748 -0.5 148.748 -0.5 148.748 1.5Z" fill="#E8E8E8"/>
<path d="M148.148 168.2C111.848 186.6 82.4479 216.9 65.2479 253.8C64.4479 255.5 67.0478 257.1 67.8478 255.3C84.8478 218.9 113.848 189 149.648 170.8C151.348 170 149.848 167.4 148.148 168.2Z" fill="#E8E8E8"/>
<path d="M150.048 170C185.348 184.7 213.848 213.8 227.848 249.3C228.548 251.1 231.448 250.3 230.748 248.5C216.248 211.8 187.248 182.2 150.848 167.1C149.048 166.4 148.248 169.3 150.048 170Z" fill="#E8E8E8"/>
<path d="M73.0478 257.1C121.248 235.2 175.248 243.4 225.548 251.7C227.448 252 228.248 249.1 226.348 248.8C175.048 240.4 120.548 232.3 71.4478 254.5C69.8478 255.3 71.3478 257.9 73.0478 257.1Z" fill="#E8E8E8"/>
<path d="M131.848 244.3C128.948 250.6 127.748 258.2 130.848 264.7C134.248 271.9 142.648 275.1 150.248 275.3C157.348 275.5 164.848 272.5 168.448 266C171.748 259.9 171.348 252.5 166.548 247.3C165.248 245.9 163.148 248 164.448 249.4C168.548 253.8 168.448 260.6 165.148 265.5C161.648 270.8 154.848 272.6 148.748 272.1C142.448 271.6 135.848 268.7 133.348 262.6C131.048 257.1 132.048 250.9 134.448 245.6C135.248 244 132.648 242.5 131.848 244.3Z" fill="#E8E8E8"/>
<path d="M2.24782 339.1C21.6478 326.7 41.1478 314.3 60.5478 302C62.1478 301 60.6478 298.4 59.0478 299.4C39.6478 311.8 20.1478 324.2 0.747819 336.5C-0.952181 337.6 0.547819 340.2 2.24782 339.1Z" fill="#E8E8E8"/>
<path d="M12.8478 398.4C29.3478 383.3 45.0478 367.4 59.9478 350.7C61.2478 349.3 59.1478 347.1 57.8478 348.6C42.9478 365.3 27.2478 381.2 10.7478 396.3C9.34783 397.6 11.4478 399.7 12.8478 398.4Z" fill="#E8E8E8"/>
<path d="M91.5479 388.8C76.5479 427.4 62.5479 466.5 49.6479 505.9C49.0479 507.7 51.9479 508.5 52.5479 506.7C65.4479 467.3 79.4479 428.3 94.4479 389.6C95.1479 387.8 92.2479 387.1 91.5479 388.8Z" fill="#E8E8E8"/>
<path d="M153.848 361.5C165.548 392.4 177.348 423.3 189.048 454.1C189.748 455.9 192.648 455.1 191.948 453.3C180.248 422.4 168.448 391.5 156.748 360.7C156.048 358.9 153.148 359.7 153.848 361.5Z" fill="#E8E8E8"/>
<path d="M208.948 318.6C226.448 333.3 242.848 349.3 258.048 366.4C259.348 367.8 261.448 365.7 260.148 364.3C244.948 347.2 228.548 331.3 211.048 316.5C209.648 315.2 207.548 317.3 208.948 318.6Z" fill="#E8E8E8"/>
<path d="M235.848 277.6C249.448 284.3 263.148 290.9 276.748 297.6C278.448 298.4 280.048 295.9 278.248 295C264.648 288.3 250.948 281.7 237.348 275C235.648 274.2 234.148 276.7 235.848 277.6Z" fill="#E8E8E8"/>
<path d="M150.748 748.1C172.848 729.1 201.348 721.5 229.048 714.5C243.148 710.9 257.148 707.3 270.948 702.5C286.848 697 302.348 690.3 317.748 683.6C319.548 682.8 317.948 680.3 316.248 681C299.848 688.1 283.448 695.2 266.548 700.9C252.448 705.6 238.048 709.1 223.648 712.8C197.048 719.7 169.948 727.7 148.748 746C147.148 747.2 149.248 749.3 150.748 748.1Z" fill="#E8E8E8"/>
<path d="M342.048 234.4C407.248 238.4 472.048 247 536.148 260C538.048 260.4 538.848 257.5 536.948 257.1C472.648 244 407.548 235.4 342.148 231.3C340.048 231.3 340.048 234.3 342.048 234.4Z" fill="#E8E8E8"/>
<path d="M342.148 232.1C342.848 227.9 343.048 223.6 342.748 219.4C342.648 217.5 339.648 217.5 339.748 219.4C340.048 223.4 339.948 227.4 339.248 231.4C338.948 233.2 341.848 234 342.148 232.1Z" fill="#E8E8E8"/>
<path d="M341.848 222.3C407.048 229 472.548 234.9 536.748 248.7C538.648 249.1 539.448 246.2 537.548 245.8C473.048 232 407.348 226 341.848 219.3C339.948 219.1 339.948 222.1 341.848 222.3Z" fill="#E8E8E8"/>
<path d="M535.448 246.7C535.048 250.5 535.348 254.3 536.048 258.1C536.448 260 539.348 259.2 538.948 257.3C538.248 253.8 538.148 250.3 538.448 246.7C538.648 244.8 535.648 244.8 535.448 246.7Z" fill="#E8E8E8"/>
<path d="M346.848 187.9C345.548 199.5 346.848 210.9 350.848 221.9C351.548 223.7 354.448 222.9 353.748 221.1C349.848 210.4 348.548 199.3 349.848 187.9C350.048 185.9 347.048 186 346.848 187.9Z" fill="#E8E8E8"/>
<path d="M346.348 188.2C358.848 191.6 371.648 193.1 384.548 192.5C386.448 192.4 386.448 189.4 384.548 189.5C371.848 190 359.348 188.6 347.148 185.3C345.248 184.8 344.448 187.7 346.348 188.2Z" fill="#E8E8E8"/>
<path d="M382.048 192.4C383.648 202.6 382.348 212.8 378.048 222.2C377.248 223.9 379.848 225.5 380.648 223.7C385.248 213.5 386.648 202.7 384.948 191.6C384.648 189.7 381.748 190.5 382.048 192.4Z" fill="#E8E8E8"/>
<path d="M357.848 187C350.048 176.7 347.148 163.8 349.948 151.2C349.148 151.4 348.248 151.6 347.448 151.9C357.748 161.9 364.248 175 365.948 189.3C366.148 191.2 369.148 191.2 368.948 189.3C367.248 174.2 360.548 160.4 349.548 149.8C348.748 149 347.248 149.3 347.048 150.5C344.148 163.9 347.048 177.7 355.248 188.6C356.348 190 358.948 188.5 357.848 187Z" fill="#E8E8E8"/>
<path d="M365.648 175.2C367.048 168.1 369.248 161.3 372.548 154.9C374.048 151.9 375.848 149 377.848 146.2C379.248 144.3 379.248 143.1 380.148 145.3C380.748 146.8 380.948 149.6 381.148 151.1C382.648 164.9 378.548 178.9 369.948 189.8C368.748 191.3 370.848 193.4 372.048 191.9C382.348 178.8 387.548 160.2 382.848 143.8C380.648 136.1 375.448 144.3 373.348 147.5C368.148 155.7 364.648 164.9 362.748 174.4C362.448 176.3 365.348 177.1 365.648 175.2Z" fill="#E8E8E8"/>
<path d="M410.448 228.6C410.848 227.2 410.848 226.2 410.748 224.7C410.648 223.5 409.548 221 409.948 220C411.448 215.9 420.848 218.9 423.648 219.2C433.548 220.4 443.348 221.7 453.148 223.1C472.148 225.8 491.048 228.9 509.848 232.2C509.448 231.7 509.148 231.2 508.748 230.8C509.048 232.9 509.248 235 509.548 237.1C509.748 239 512.748 239 512.548 237.1C512.248 235 512.048 232.9 511.748 230.8C511.648 230.2 511.348 229.5 510.648 229.4C488.548 225.4 466.448 221.9 444.248 218.9C434.048 217.5 423.448 215.3 413.148 215C410.848 214.9 408.548 215.3 407.348 217.6C405.748 220.8 408.348 224.4 407.548 227.7C407.048 229.7 409.948 230.5 410.448 228.6Z" fill="#E8E8E8"/>
<path d="M441.248 217.4C437.448 211.6 445.448 208.5 449.848 208.5C454.048 208.5 458.248 209.5 462.448 210.1C470.048 211.2 477.748 212.3 485.348 213.5C492.848 214.6 500.448 215.9 507.948 217.3C511.348 218 514.748 218.7 518.248 219.5C521.248 220.2 533.448 221.7 530.848 227.3C530.048 229 532.648 230.6 533.448 228.8C537.648 219.7 523.948 217.7 518.148 216.4C506.048 213.7 493.848 211.7 481.548 209.9C475.448 209 469.448 208.1 463.348 207.3C457.948 206.5 452.048 204.9 446.548 205.8C440.448 206.7 434.948 213.1 438.848 219C439.748 220.5 442.348 219 441.248 217.4Z" fill="#E8E8E8"/>
<path d="M509.948 232.1C516.948 233.9 524.048 234.3 531.248 233.1C533.148 232.8 532.348 229.9 530.448 230.2C523.848 231.2 517.248 230.9 510.748 229.2C508.848 228.8 508.048 231.7 509.948 232.1Z" fill="#E8E8E8"/>
<path d="M66.7479 257.2C87.4479 259.6 108.248 260.9 129.148 261.1C131.048 261.1 131.048 258.1 129.148 258.1C108.248 257.9 87.4479 256.5 66.7479 254.2C64.8479 254 64.8479 257 66.7479 257.2Z" fill="#E8E8E8"/>
<path d="M170.848 259.8C190.348 259.8 209.448 257.4 228.548 253.6C230.448 253.2 229.648 250.3 227.748 250.7C208.948 254.5 190.148 256.8 170.848 256.8C168.948 256.8 168.948 259.8 170.848 259.8Z" fill="#E8E8E8"/>
<path d="M98.6479 325.3C88.6479 343.1 78.6479 360.9 68.6479 378.7C67.7479 380.4 70.2479 381.9 71.2479 380.2C81.2479 362.4 91.2479 344.6 101.248 326.8C102.148 325.1 99.5479 323.6 98.6479 325.3Z" fill="#E8E8E8"/>
<path d="M166.148 306.9C172.648 317.2 178.548 327.7 183.948 338.6C184.848 340.3 187.448 338.8 186.548 337.1C181.148 326.3 175.148 315.7 168.748 305.4C167.748 303.7 165.148 305.2 166.148 306.9Z" fill="#E8E8E8"/>
<path d="M210.648 285.5C218.248 289.9 225.748 294.2 233.348 298.6C235.048 299.6 236.548 297 234.848 296C227.248 291.6 219.748 287.3 212.148 282.9C210.448 281.9 208.948 284.5 210.648 285.5Z" fill="#E8E8E8"/>
<path d="M410.048 919.5C484.148 899.4 557.148 875.6 628.848 848.2C664.248 834.7 699.248 820.3 733.848 805C751.448 797.3 768.848 789.3 786.248 781.1C803.348 773.1 820.148 764.4 837.448 757C857.248 748.5 878.448 741.8 900.248 743.2C922.148 744.6 941.948 754.9 961.048 764.9C962.748 765.8 964.248 763.2 962.548 762.3C946.548 753.9 930.148 745.3 912.248 741.7C894.848 738.3 877.148 740.4 860.248 745.4C842.248 750.7 825.348 759 808.548 767.1C791.048 775.6 773.348 783.9 755.648 791.9C683.848 824.5 610.448 853.3 535.748 878.3C493.948 892.3 451.848 905 409.348 916.5C407.348 917.1 408.148 920 410.048 919.5Z" fill="#191919"/>
<path d="M908.448 770.9C922.548 773.7 935.848 768.3 949.748 766.8C965.648 765.1 981.148 769.7 995.948 775C1024.55 785.2 1051.95 798.4 1077.75 814.3C1079.45 815.3 1080.95 812.7 1079.25 811.7C1053.75 796 1026.65 782.9 998.448 772.7C984.648 767.7 970.148 763.1 955.248 763.4C939.748 763.8 924.748 771 909.248 768C907.348 767.6 906.548 770.5 908.448 770.9Z" fill="#191919"/>
<path d="M314.048 994.7C303.148 1012.1 299.248 1032.4 296.948 1052.5C294.248 1076 292.148 1099.6 289.848 1123.1C289.648 1125 292.648 1125 292.848 1123.1C295.048 1100.7 297.148 1078.3 299.548 1055.9C301.848 1035.2 305.348 1014.2 316.648 996.2C317.648 994.6 315.148 993.1 314.048 994.7Z" fill="#191919"/>
<path d="M384.848 1038.1C367.048 1067.8 364.648 1103 364.748 1136.8C364.748 1138.7 367.748 1138.7 367.748 1136.8C367.648 1103.5 369.848 1068.8 387.448 1039.6C388.448 1037.9 385.848 1036.4 384.848 1038.1Z" fill="#191919"/>
<path d="M233.348 1027.3C250.748 1008.2 270.848 989.4 292.948 975.9C315.948 961.9 342.548 959.4 368.748 957.5C370.648 957.4 370.648 954.4 368.748 954.5C342.648 956.5 315.948 958.9 292.948 972.4C281.748 979 271.748 987.3 261.948 995.6C251.148 1004.8 240.848 1014.6 231.248 1025.1C229.948 1026.6 232.048 1028.7 233.348 1027.3Z" fill="#191919"/>
<path d="M688.548 712.5C743.948 722.6 799.048 734.3 853.748 747.6C855.648 748.1 856.448 745.2 854.548 744.7C799.848 731.4 744.748 719.7 689.348 709.6C687.448 709.3 686.648 712.2 688.548 712.5Z" fill="#191919"/>
<path d="M427.848 505.5C429.448 512.2 431.648 523.2 431.648 536.9C431.648 575.7 414.248 611.2 408.948 621.9C405.548 628.7 398.748 641.7 394.348 660.9C392.848 667.2 392.048 672.5 391.648 676.1C395.648 676.5 401.748 677.2 408.948 678.3C425.148 680.7 431.948 682.8 441.448 684.3C449.648 685.5 461.348 686.4 476.148 684.8C475.748 688.5 475.048 694 473.948 700.5C471.348 716.7 470.048 724.7 466.948 730.8C462.148 740.2 456.848 742.9 458.248 747C459.248 750 463.048 751.4 472.348 753.5C487.648 757 495.848 757.4 503.748 758.9C512.548 760.6 512.848 762 531.948 769.2C548.448 775.4 557.948 779 569.848 781.7C573.648 782.6 593.548 787 619.648 786C634.248 785.5 639.548 783.7 653.248 784.9C664.748 785.9 674.048 788.4 680.348 790.3C681.248 784.7 682.548 776.3 683.548 765.9C685.748 743.7 684.048 740 687.348 729.1C689.848 720.6 691.148 722 700.848 701.5C707.148 688.1 710.348 681.4 712.748 673.3C714.148 668.4 718.248 653.8 717.648 634.3C717.048 614.3 712.448 618.1 710.648 596.4C710.448 593.6 710.048 587.5 706.648 586.2C704.148 585.2 701.148 587.3 697.648 589.6C688.048 595.9 680.048 600 678.248 600.9C673.248 603.3 665.148 605.1 652.048 601.2C653.448 596.7 655.248 590.5 657.148 582.9C660.448 569.4 661.848 559.8 663.348 549.1C663.348 549.1 666.748 525.3 662.248 511.4C661.348 508.7 660.048 506.6 658.048 505.8C656.048 505 654.148 505.8 652.148 506.4C649.248 507.3 645.148 508.1 639.448 508.1C638.648 506.7 637.348 504.6 635.548 502.5C633.248 499.8 628.648 495.3 619.748 491.8C608.748 487.4 596.448 486.7 584.548 486.7C564.348 486.7 562.848 488.9 543.248 489C532.948 489 524.248 489.1 512.548 487.3C492.148 484.3 490.648 479.9 479.348 481.1C471.448 481.9 464.148 485.7 449.548 493.2C440.348 497.9 433.048 502.3 427.848 505.5Z" fill="white"/>
<path d="M537.148 577.4C560.848 574 582.348 587.5 603.948 594.8C626.048 602.2 649.548 604.9 672.848 603C674.748 602.8 674.748 599.8 672.848 600C647.948 602 622.948 598.7 599.548 590.1C579.048 582.5 558.848 571.3 536.348 574.6C534.448 574.8 535.248 577.6 537.148 577.4Z" fill="#191919"/>
<path d="M545.348 580.5C537.248 577.1 528.848 564.2 519.148 571C514.748 574 512.948 579.6 511.448 584.4C509.048 592 507.248 599.8 505.248 607.6C501.248 623.8 495.048 638.6 487.948 653.7C481.448 667.3 476.048 680.8 473.248 695.7C470.648 709.6 469.348 724.3 462.148 736.8C460.148 740.4 454.348 745.7 458.748 749.7C462.948 753.6 471.248 755.7 476.548 757.1C483.548 759 490.648 759.4 497.948 759.7C506.848 760 514.448 762.2 522.448 765.7C536.948 771.9 551.348 778.4 566.548 782.7C584.548 787.8 601.748 787.9 620.348 786.7C640.248 785.4 659.748 786.9 679.048 792C679.848 792.2 680.548 791.7 680.848 791C688.148 772.5 682.748 752.3 687.948 733.4C693.148 714.5 706.548 699.2 712.448 680.5C718.248 662.5 719.248 643.1 717.048 624.4C716.048 615.4 714.248 606.5 711.848 597.8C710.648 593.3 709.548 582.4 702.448 585C698.148 586.6 693.948 590 690.148 592.6C685.948 595.4 681.748 598.3 677.348 600.9C668.048 606.6 658.148 611.1 647.048 611C645.148 611 645.148 614 647.048 614C663.148 614.1 676.648 605.1 689.548 596.5C692.848 594.3 696.148 592 699.648 590C700.048 589.7 701.648 588.5 702.348 588.4C707.248 587.6 705.648 589.3 706.748 591.2C707.948 593.2 708.348 596.4 708.948 598.6C711.448 607.6 713.248 616.8 714.248 626.2C716.148 644.4 715.048 663.1 709.248 680.6C703.548 697.9 691.648 712.2 685.948 729.4C679.348 749.2 685.648 770.8 677.848 790.3C678.448 790 679.048 789.6 679.648 789.3C665.248 785.5 650.548 783.5 635.648 783.4C620.148 783.3 604.648 786 589.148 784.4C574.048 782.8 559.448 778.1 545.348 772.5C532.448 767.4 519.248 759.4 505.348 757.5C498.248 756.5 490.948 757.1 483.848 755.9C477.348 754.8 468.148 753.1 462.948 749.1C460.648 747.3 460.248 746 461.448 743.3C462.048 741.9 463.348 740.6 464.048 739.3C465.448 736.9 466.648 734.5 467.648 731.9C470.048 726 471.548 719.8 472.848 713.5C475.448 700.4 477.048 687.3 481.748 674.7C486.748 661.3 493.848 648.7 499.348 635.5C505.748 620.2 508.448 603.9 513.248 588C515.348 581.1 518.948 568.8 528.648 573.2C534.148 575.7 537.948 580.9 543.548 583.3C545.648 583.8 547.148 581.2 545.348 580.5Z" fill="#191919"/>
<path d="M587.748 612.7C601.348 617.5 615.448 618.8 629.748 616.7C631.648 616.4 630.848 613.5 628.948 613.8C615.248 615.8 601.648 614.4 588.548 609.8C586.648 609.1 585.948 612 587.748 612.7Z" fill="#191919"/>
<path d="M655.148 603.4C665.248 604 675.148 602.8 684.748 599.7C686.548 599.1 685.748 596.2 683.948 596.8C674.548 599.8 665.048 601 655.148 600.3C653.148 600.3 653.248 603.3 655.148 603.4Z" fill="#191919"/>
<path d="M431.048 506.2C439.448 501.1 447.748 496 456.148 491C464.148 486.2 471.948 482.5 481.548 482.8C491.548 483.2 501.348 486.5 511.148 488.3C519.848 489.8 528.748 490.7 537.548 491C569.748 491.9 612.748 478.2 637.048 507.1C638.248 508.6 640.448 506.4 639.148 505C614.548 475.8 572.048 488.6 539.448 488.1C528.948 487.9 518.448 486.8 508.048 484.8C498.648 482.9 489.248 479.8 479.648 479.9C470.948 480 463.448 483.3 456.048 487.6C447.148 492.8 438.348 498.3 429.548 503.7C427.848 504.6 429.348 507.2 431.048 506.2Z" fill="#191919"/>
<path d="M596.748 512.8C608.748 514.2 620.748 513.9 632.648 511.8C638.148 510.8 643.548 508.9 649.048 508.1C652.048 507.7 655.648 507.4 658.348 509C662.048 511.1 662.348 515.8 662.448 519.6C662.848 546.3 658.648 573.3 651.148 598.9C650.648 600.8 653.548 601.6 654.048 599.7C658.248 585.4 661.348 570.8 663.248 556.1C664.248 548.5 664.848 540.8 665.248 533.1C665.548 526.7 666.648 519 664.748 512.8C661.648 502.4 649.548 504.8 641.648 506.8C626.848 510.6 611.848 511.7 596.748 509.9C594.848 509.5 594.848 512.5 596.748 512.8Z" fill="#191919"/>
<path d="M426.248 504.8C426.548 521.5 432.248 537.6 431.148 554.5C430.148 569.4 425.148 583.6 419.348 597.2C408.348 623 393.748 647.7 390.348 676C390.248 676.8 391.148 677.5 391.848 677.5C399.448 677.3 406.548 679.3 413.848 681.1C420.748 682.8 427.648 684.2 434.748 685.2C448.748 687.1 462.948 687.4 477.048 686.2C478.948 686 478.948 683 477.048 683.2C462.248 684.5 447.248 684.1 432.548 681.9C419.048 679.8 405.748 674.3 391.948 674.6C392.448 675.1 392.948 675.6 393.448 676.1C397.048 646.7 413.048 621.2 424.048 594.2C429.248 581.5 433.348 568.3 434.348 554.6C435.448 537.8 429.748 521.7 429.448 504.9C429.248 502.8 426.248 502.8 426.248 504.8Z" fill="#191919"/>
<path opacity="0.13" d="M564.848 577.1C570.248 577.8 589.748 580.5 603.748 571.6C614.948 564.5 623.148 549.5 623.148 535.7C623.148 526.3 619.248 517.8 624.148 513.3C625.448 512.1 626.248 512.3 632.148 510.8C646.548 507.2 648.448 504.4 653.548 505.8C659.548 507.4 662.648 512.6 663.048 513.3C666.348 519 664.848 525.3 664.048 529.2C658.448 556.2 663.748 557 655.548 587.5C653.948 593.3 652.548 598 651.548 601C655.748 601.5 661.348 601.8 667.948 601C673.648 600.3 681.648 599.3 689.848 594.5C698.048 589.7 700.548 584.5 704.248 585.5C707.548 586.4 708.848 591.2 709.748 594.5C715.948 618.3 715.748 629.9 715.748 629.9C715.248 656.3 715.048 669.6 713.248 676.2C705.448 705.2 691.048 702 687.348 726.5C685.048 741.8 689.548 750.2 684.348 772.3C682.548 779.8 680.448 785.8 678.848 789.7C671.848 787.7 660.748 785.1 646.948 784.2C626.648 782.9 618.848 786.5 599.148 786.2C581.948 786 553.148 782.8 552.348 775.7C551.048 765.5 610.248 760.3 614.148 736.3C616.748 720.4 592.948 712.5 582.248 685.5C571.848 659.4 580.248 631.5 588.748 612.3C600.848 613.5 612.948 614.6 625.148 615.8C564.748 585.8 553.148 577.7 553.948 575.9C554.248 575.2 557.948 576.1 564.848 577.1Z" fill="#6C6D6D"/>
<path opacity="0.16" d="M706.348 587.1C703.148 587.3 704.548 605.1 698.348 634.9C697.548 638.7 691.148 669.1 676.948 699.2C667.948 718.3 649.248 751.1 611.648 783.4C634.248 786.2 656.848 789 679.448 791.9C680.848 787.2 682.948 779.8 684.448 770.5C688.048 748.8 684.748 742.3 688.448 727.7C691.948 713.9 696.148 714.4 704.348 695.8C705.448 693.3 713.548 674.8 716.348 653.5C720.748 619.4 710.748 586.8 706.348 587.1Z" fill="#6C6D6D"/>
<path opacity="0.18" d="M662.548 544.2C660.548 543.6 656.948 559 644.648 571.1C630.948 584.6 611.948 588.4 595.848 589C605.348 592.9 617.648 596.9 632.248 599C639.848 600.1 646.848 600.5 653.148 600.5C663.248 556.3 664.248 544.7 662.548 544.2Z" fill="#6C6D6D"/>
<path d="M136.548 958.2C139.348 977.2 142.148 996.1 144.848 1015.1C102.848 1070.4 84.5478 1100.7 90.0478 1105.9C95.9478 1111.5 129.548 1088 190.848 1035.4C188.748 1002.7 186.648 970.1 184.548 937.4C168.548 944.3 152.548 951.3 136.548 958.2Z" fill="#191919"/>
<path d="M302.248 702.1C280.148 709.3 236.148 726.2 192.348 763.2C173.848 778.8 155.048 794.9 139.648 822.7C126.448 846.5 122.548 866.7 116.748 898.3C112.348 922.3 107.748 956.7 108.348 999C121.548 998 135.548 996.6 150.348 994.4C169.048 991.7 186.348 988.3 202.248 984.5C202.048 963.6 203.848 937.5 210.648 908.2C215.148 888.9 220.848 872.1 226.648 857.8C268.148 819.4 306.648 801.4 335.048 792.2C369.348 781 397.748 779.7 419.748 754C432.848 738.8 447.048 711 437.348 695.2C418.148 664.2 316.948 697.3 302.248 702.1Z" fill="white" stroke="#191919" stroke-width="2" stroke-miterlimit="10"/>
<path opacity="0.14" d="M425.348 686.6C419.248 687.8 420.948 703.7 415.648 718C406.048 743.6 377.448 754.9 354.448 764C219.148 817.8 204.248 828.4 192.548 844.7C181.448 860.2 176.648 876.7 167.148 909.7C157.448 943.2 153.948 972.3 152.548 993.1C169.148 990.4 185.748 987.7 202.348 985C202.248 974 202.748 962.2 203.948 949.8C207.648 912.7 216.848 881.3 226.648 856.7C232.948 851.5 241.748 844.5 252.648 836.7C274.848 820.8 290.848 809.3 312.748 800.4C329.848 793.4 331.248 795.9 373.948 781.5C385.748 777.5 392.148 775.1 399.948 770.1C417.948 758.6 426.848 743.8 430.848 737.1C437.548 725.7 442.448 717.4 440.548 706.8C438.748 696 430.648 685.5 425.348 686.6Z" fill="#6C6D6D"/>
<path opacity="0.16" d="M280.848 814.4C244.348 821.1 224.848 837.6 215.848 846.9C198.848 864.5 191.848 886.5 178.448 929.7C170.748 954.6 165.848 975.6 162.748 990.3C175.248 988.7 187.648 987.1 200.148 985.4C200.548 964.3 202.748 946.5 205.048 932.9C206.448 924.3 208.848 910.5 214.248 892.8C218.648 878.4 223.548 866.3 227.748 857.1C245.448 842.9 263.148 828.6 280.848 814.4Z" fill="#6C6D6D"/>
<path d="M155.648 790.8C159.548 786.8 165.548 781.5 173.948 777.8C196.348 768 219.448 776.2 233.348 781C264.448 791.8 297.448 797.4 327.248 811.2C372.348 832.1 431.548 859.6 493.448 870.6C562.848 882.9 577.648 864.2 671.548 878.2C706.148 883.3 734.148 890.3 752.448 895.5C744.448 911.6 736.148 916.7 729.748 918.2C725.448 919.2 723.248 918.3 720.048 920.4C712.048 925.6 716.248 937.4 710.348 946.3C704.548 955 693.348 954.2 681.248 957.1C656.648 962.9 654.248 977.4 626.248 996C612.648 1005 587.048 1021.9 558.248 1020.8C527.348 1019.6 523.448 998.9 489.148 987.3C446.348 972.9 433.348 999 375.848 994.9C363.748 994 304.148 989.8 262.548 948.5C234.148 920.4 239.348 899.9 207.548 867.6C183.248 842.9 156.048 830.1 137.348 823.3C139.648 818.5 142.248 813.6 145.048 808.5C148.548 802.1 152.148 796.3 155.648 790.8Z" fill="white" stroke="#191919" stroke-width="2" stroke-miterlimit="10"/>
<path d="M167.948 790.6C181.848 791 195.348 794.1 208.048 799.8C209.348 800.4 210.548 798.5 209.148 797.9C196.048 792 182.248 788.8 167.948 788.3C166.448 788.3 166.448 790.6 167.948 790.6Z" fill="#191919"/>
<path d="M201.048 847.3C224.648 860.8 237.148 886 253.548 906.6C270.948 928.4 293.348 945.9 318.648 957.7C319.948 958.3 321.048 956.4 319.748 955.8C293.348 943.4 270.148 924.9 252.448 901.6C237.248 881.6 224.748 858.3 202.248 845.4C200.948 844.6 199.748 846.6 201.048 847.3Z" fill="#191919"/>
<path d="M631.348 917.1C659.548 917.4 687.748 915.8 715.748 912.4C717.148 912.2 717.148 910 715.748 910.1C687.748 913.5 659.548 915.1 631.348 914.8C629.848 914.9 629.848 917.1 631.348 917.1Z" fill="#191919"/>
<path d="M622.848 954.4C633.248 958.2 643.848 961.4 654.548 963.8C655.948 964.1 656.548 962 655.148 961.6C644.348 959.1 633.748 956 623.448 952.2C622.048 951.7 621.448 953.9 622.848 954.4Z" fill="#191919"/>
<path d="M272.148 885.3C296.848 907.2 326.748 924.6 358.748 933.3C374.848 937.6 391.248 938.3 407.548 934.8C424.748 931.1 440.748 923.7 456.048 915.1C457.348 914.4 456.148 912.4 454.948 913.2C440.348 921.4 425.048 928.5 408.748 932.3C391.648 936.3 374.548 935.5 357.648 930.7C326.648 921.9 297.848 905.1 273.748 883.8C272.648 882.7 271.048 884.3 272.148 885.3Z" fill="#191919"/>
<path d="M411.448 872.1C418.048 873.4 424.048 876.3 428.848 881.1C434.048 886.3 439.548 898.4 429.348 901.8C427.948 902.3 428.548 904.4 429.948 904C437.748 901.4 438.848 892.6 435.348 886C430.748 877.3 421.348 871.8 412.048 870C410.648 869.7 410.048 871.9 411.448 872.1Z" fill="#191919"/>
<path d="M445.648 930.7C467.148 916.8 492.948 914.1 517.848 911.8C519.248 911.7 519.248 909.4 517.848 909.5C492.548 911.8 466.348 914.6 444.548 928.7C443.348 929.5 444.448 931.5 445.648 930.7Z" fill="#191919"/>
<path d="M236.248 796.4C258.348 802.3 275.748 817.4 294.148 830.1C313.248 843.3 334.148 853.7 356.148 861C357.548 861.5 358.148 859.3 356.748 858.8C333.748 851.2 312.248 840.2 292.548 826.2C274.948 813.8 257.948 799.8 236.748 794.1C235.448 793.9 234.848 796 236.248 796.4Z" fill="#191919"/>
<path opacity="0.13" d="M211.948 773.9C240.248 787.1 260.548 801 273.848 811.3C288.048 822.3 292.648 828 308.048 837.6C316.348 842.8 333.548 853.5 357.948 861.1C387.948 870.5 400.948 866.4 412.448 879.6C413.948 881.3 422.548 891.1 421.248 903.1C419.648 918.1 403.548 931.6 380.648 935C387.148 935.1 394.448 934.7 402.348 933.6C421.048 931 436.148 925.2 447.148 919.8C443.648 923.9 440.048 928.6 441.148 930C442.648 931.9 452.348 926.4 459.148 923.1C471.648 917 479.948 916.2 509.448 911.6C574.548 901.5 580.848 898.6 601.348 900.5C617.148 902 635.548 905.9 635.548 909.3C635.448 912.8 615.148 914.1 615.248 915.8C615.448 917.9 651.448 927.7 687.248 914.9C695.348 912 715.648 903.6 722.748 911.2C724.748 913.3 725.748 916.8 729.248 917.7C733.448 918.8 737.848 915.1 740.748 912.6C743.848 910 748.848 904.9 752.248 896C750.348 895.4 747.648 894.6 744.448 893.7C737.648 891.8 717.448 886.2 688.148 881.2C679.048 879.7 662.048 876.8 641.948 875.2C599.848 871.8 588.748 877.1 550.548 876.1C540.748 875.8 511.248 874.7 475.248 866.9C443.148 859.9 420.048 850.7 381.548 835C348.048 821.4 344.248 818 319.248 807.8C294.748 797.7 258.748 784.6 211.948 773.9Z" fill="#6C6D6D"/>
<path opacity="0.18" d="M502.848 990.9C513.348 986.5 525.848 982.3 540.248 979.4C546.248 978.2 551.948 977.3 557.348 976.6C555.748 980.4 554.048 984.2 552.248 988.1C547.648 998.2 542.848 1007.5 537.948 1016.3C526.248 1007.9 514.548 999.4 502.848 990.9Z" fill="#6C6D6D"/>
<path opacity="0.15" d="M683.748 933.7C658.348 939.5 639.548 937.8 639.448 939.2C639.348 940.4 652.048 942.7 708.248 948C709.948 944.1 711.748 939.8 713.348 935.1C714.848 930.7 716.048 926.5 717.048 922.6C709.248 926.1 697.948 930.5 683.748 933.7Z" fill="#6C6D6D"/>
<path opacity="0.22" d="M412.348 871.4C411.948 872.2 421.748 874.4 426.648 882.9C430.248 889.2 429.948 896.5 428.448 902.8C429.448 902.4 435.248 900 436.748 894.5C438.248 888.8 434.048 883.9 431.648 881.1C424.248 872.3 412.748 870.5 412.348 871.4Z" fill="#6C6D6D"/>
<path opacity="0.15" d="M552.648 875.1C587.248 871.7 631.348 870.9 681.448 879.3C707.048 883.6 730.148 889.5 750.248 895.9C749.448 898.7 747.648 903.4 743.748 907.9C743.748 907.9 739.748 912.5 733.548 915.7C718.248 923.6 694.348 915.7 692.948 915.2C699.548 914.3 706.848 912.8 714.648 910.6C719.148 909.3 723.248 907.9 727.148 906.4C713.948 900.9 699.448 895.7 683.748 891.2C633.848 876.7 588.448 873.9 552.648 875.1Z" fill="#6C6D6D"/>
<path d="M610.248 906.8C611.348 905.5 612.948 905.6 617.148 904.8C622.148 903.8 626.048 902.5 628.748 901.5C643.848 897.3 654.848 891.7 662.348 887.2C678.348 877.5 685.548 868.3 695.148 870.4C701.248 871.8 706.848 877.5 706.348 882.3C705.948 886.4 701.348 889.1 678.348 897.8C642.648 911.3 645.948 907.7 635.248 913.3C625.448 918.5 619.948 922.9 614.948 920.7C610.048 918.3 607.548 909.9 610.248 906.8Z" fill="#191919"/>
<path d="M798.748 826.3C784.048 837.9 784.348 856.8 784.348 858.4C784.548 864.6 786.148 869.5 787.348 872.4C769.648 881.4 766.748 885.1 767.248 886.8C768.648 891.2 794.948 891.9 807.048 877.1C809.848 873.7 810.948 870.3 813.048 863.7C817.248 850.6 822.948 824.2 814.748 819.9C810.048 817.5 802.348 823.5 798.748 826.3Z" fill="#191919"/>
<path d="M692.848 879.3C695.048 874.8 700.448 873.8 710.448 871.5C721.448 869 740.048 864.7 750.448 860.8C762.448 856.2 769.548 849.8 781.748 838.8C806.148 816.8 807.248 803.2 818.248 802.7C831.948 802.1 849.048 822.2 847.348 840.1C846.048 854.1 833.748 862 810.848 876.6C805.548 880 782.648 894.2 747.348 901.9C726.348 906.5 711.448 909.6 701.048 900.9C694.548 895.5 689.848 885.5 692.848 879.3Z" fill="#191919"/>
<path d="M824.648 832.4C809.948 844 810.248 862.9 810.248 864.5C810.448 870.7 812.048 875.6 813.248 878.5C795.548 887.5 792.648 891.2 793.148 892.9C794.548 897.3 820.848 898 832.948 883.2C835.748 879.8 836.848 876.4 838.948 869.8C843.148 856.7 848.848 830.3 840.648 826C835.848 823.5 828.148 829.6 824.648 832.4Z" fill="#191919"/>
<path d="M807.548 812.4C809.348 810.7 811.748 808.3 814.348 805.2C815.948 803.3 821.948 796.1 828.448 782.2C832.148 774.4 835.048 768.2 837.048 759C838.948 750.1 840.548 742.2 836.648 735.4C833.448 729.8 829.748 726.8 829.748 726.8C826.448 724.2 823.648 723.2 823.748 721.6C823.948 720.2 826.448 719 828.748 719C835.748 718.9 840.948 731.2 841.848 733.2C846.448 744.1 844.748 754.5 843.948 758.1C843.448 760.2 843.448 759.6 839.648 771C835.948 782.2 836.048 782.4 834.448 786.9C829.048 802.1 826.048 810.5 819.048 813.1C817.048 813.9 813.248 814.6 807.548 812.4Z" fill="#191919"/>
<path d="M671.448 896.3C667.948 894.6 658.348 890 657.848 883C657.748 881.8 658.848 877.5 660.948 869C661.848 865.4 661.948 865.2 662.348 863.4C663.648 857.5 663.248 856.3 664.448 853.6C664.948 852.5 667.148 847.4 670.048 847.3C672.648 847.2 675.548 851.3 676.648 857.4C681.648 857.3 688.048 857.2 693.048 857.1C698.448 857 704.848 856.9 710.148 856.8C711.148 855.2 712.848 852.9 715.348 850.5C717.748 848.2 719.448 846.6 720.948 847C722.948 847.5 723.348 851.6 724.048 856.8C726.548 874.9 728.748 876.4 726.848 881.3C724.848 886.3 720.848 888.9 716.348 891.8C715.448 892.5 692.748 906.6 671.448 896.3Z" fill="#191919"/>
<path d="M668.348 872.6C671.848 871.9 674.848 874 677.548 876C677.948 876.3 678.348 875.6 677.948 875.4C675.048 873.2 671.948 871.2 668.148 871.9C667.748 871.9 667.948 872.7 668.348 872.6Z" fill="white"/>
<path d="M692.248 876C695.448 873.6 699.048 872.1 702.948 871.6C703.448 871.5 703.448 870.8 702.948 870.8C698.848 871.3 695.148 872.8 691.848 875.3C691.548 875.6 691.848 876.3 692.248 876Z" fill="white"/>
<path d="M674.848 865.2C675.848 864.4 677.048 864.1 678.348 864.4C678.848 864.5 679.048 863.8 678.548 863.7C677.048 863.3 675.548 863.7 674.348 864.7C673.948 865 674.448 865.5 674.848 865.2Z" fill="white"/>
<path d="M692.048 864.7C693.148 864.3 694.248 864.4 695.248 865.1C695.648 865.4 696.048 864.7 695.648 864.5C694.548 863.8 693.148 863.6 691.948 864.1C691.348 864.2 691.548 864.9 692.048 864.7Z" fill="white"/>
<path d="M683.948 880.3C684.048 880.2 684.148 880.1 684.248 879.9C684.048 879.8 683.948 879.7 683.748 879.6C683.848 880.1 683.748 880.6 683.448 881C683.548 880.9 683.748 880.9 683.848 880.8C683.548 880.4 683.548 880 683.748 879.7C683.548 879.8 683.348 879.8 683.148 879.9C683.148 880.3 683.148 880.7 683.248 881.1C683.448 881.2 683.648 881.3 683.848 881.4C683.848 881.1 683.848 880.7 683.948 880.3C683.648 880.3 683.448 880.3 683.148 880.3C683.348 881.4 683.248 882.6 682.648 883.6C682.448 884 681.948 884.7 681.448 885C679.848 885.8 679.848 883.7 679.848 883C679.848 882.5 679.048 882.5 679.048 883C679.048 883.9 679.148 884.9 679.848 885.6C680.548 886.2 681.348 886.1 682.048 885.5C683.648 884.3 684.148 882.1 683.748 880.2C683.648 879.8 683.048 879.9 683.048 880.3C683.048 880.7 683.048 881.1 683.048 881.5C683.048 881.8 683.448 882 683.648 881.8C684.248 881.1 684.248 880.2 683.548 879.6C683.348 879.4 683.048 879.5 682.948 879.8C682.648 880.6 682.548 881.5 683.548 881.8C683.748 881.9 683.848 881.8 683.948 881.6C684.448 881 684.548 880.3 684.348 879.6C684.248 879.4 684.048 879.3 683.848 879.3C683.248 879.5 683.048 879.8 682.948 880.4C683.148 880.8 683.948 880.8 683.948 880.3Z" fill="white"/>
<path d="M683.648 880.6C682.848 882.4 683.148 885.3 685.148 886.3C687.348 887.4 688.248 884.6 688.448 883C688.448 882.5 687.748 882.5 687.648 883C687.548 883.7 687.548 884.4 687.148 885C686.448 886.1 685.248 885.8 684.548 884.9C683.648 883.7 683.648 882.2 684.248 880.8C684.548 880.4 683.848 880.2 683.648 880.6Z" fill="white"/>
<path d="M675.348 878.4C673.048 877.2 670.848 875.9 668.748 874.5C668.348 874.2 667.948 874.9 668.348 875.1C670.448 876.5 672.648 877.8 674.948 879C675.448 879.3 675.848 878.6 675.348 878.4Z" fill="white"/>
<path d="M674.548 880.8C672.348 880.5 670.148 880.5 667.848 880.8C667.348 880.9 667.348 881.6 667.848 881.6C670.048 881.3 672.248 881.3 674.548 881.6C675.048 881.6 675.048 880.8 674.548 880.8Z" fill="white"/>
<path d="M674.448 882C672.348 882.7 670.448 884 669.048 885.7C668.748 886.1 669.248 886.6 669.548 886.2C670.848 884.5 672.648 883.3 674.648 882.7C675.148 882.5 674.948 881.8 674.448 882Z" fill="white"/>
<path d="M691.648 881.4C694.748 879.3 698.248 878.1 701.948 877.9C702.448 877.9 702.448 877.1 701.948 877.1C698.048 877.4 694.448 878.6 691.248 880.7C690.848 881 691.248 881.7 691.648 881.4Z" fill="white"/>
<path d="M693.048 883.2C695.948 882.3 698.848 882.6 701.448 884C701.848 884.2 702.248 883.6 701.848 883.4C699.048 881.9 695.948 881.6 692.848 882.5C692.348 882.6 692.548 883.3 693.048 883.2Z" fill="white"/>
<path d="M694.248 885C696.648 885.5 698.648 886.7 700.248 888.5C700.548 888.9 701.048 888.3 700.748 888C699.048 886.1 696.948 884.8 694.448 884.3C693.948 884.1 693.748 884.9 694.248 885Z" fill="white"/>
<path d="M719.048 852C717.748 854 716.848 856.2 716.448 858.5C716.448 858.8 716.648 859 716.948 859C717.348 858.9 717.348 858.8 717.748 858.6C717.548 858.7 719.748 857.1 719.048 858.6C718.848 858.9 719.248 859.3 719.548 859.1C719.948 859.1 720.348 859.2 720.748 859.2C720.448 859.6 720.948 860.1 721.248 859.7C721.548 859.3 721.648 858.8 721.248 858.4C720.648 857.8 719.848 858.1 719.148 858.5C719.348 858.7 719.448 858.8 719.648 859C719.948 858.4 720.248 857.6 719.448 857.1C718.348 856.4 717.548 858 716.748 858.3C716.948 858.5 717.048 858.6 717.248 858.8C717.648 856.5 718.548 854.4 719.748 852.5C719.948 852 719.348 851.6 719.048 852Z" fill="white"/>
<path d="M669.448 852.4C669.948 854.1 670.148 855.8 670.048 857.5C670.348 857.5 670.548 857.5 670.848 857.5C670.848 856.3 669.448 855.4 668.548 856.5C668.348 856.7 668.348 857 668.148 857.1C667.948 857.3 667.648 857.4 667.348 857.6C666.748 858.2 666.648 858.9 666.848 859.6C666.948 860.1 667.648 859.9 667.548 859.4C667.448 858.5 667.748 857.9 668.648 857.7C668.848 857.7 668.948 857.5 668.948 857.3C669.348 857.3 669.648 857.3 670.048 857.3C670.048 857.8 670.748 857.8 670.848 857.3C671.048 855.5 670.848 853.7 670.248 852C670.048 851.7 669.348 851.9 669.448 852.4Z" fill="white"/>
<path d="M632.048 921.6C633.148 920.3 634.748 920.4 638.948 919.6C643.948 918.6 647.848 917.3 650.548 916.3C665.648 912.1 676.648 906.5 684.148 902C700.148 892.3 707.348 883.1 716.948 885.2C723.048 886.6 728.648 892.3 728.148 897.1C727.748 901.2 723.148 903.9 700.148 912.6C664.448 926.1 667.748 922.5 657.048 928.1C647.248 933.3 641.748 937.7 636.748 935.5C631.748 933.2 629.348 924.8 632.048 921.6Z" fill="#191919"/>
<path d="M349.648 487.4C342.248 483.5 332.648 487.8 327.348 490.2C317.948 494.4 307.348 503 295.248 531.3C288.448 547.1 279.848 572.3 277.148 605.9C266.548 610.5 251.548 615.5 233.248 616.4C213.448 617.3 203.148 612.8 197.648 619.2C190.748 627.2 196.648 646.4 207.448 657.6C219.548 670.2 236.148 671 247.248 671.5C255.348 671.9 284.848 672.3 311.448 652C337.148 632.3 344.048 605.5 351.948 575.3C353.948 566.7 371.048 498.6 349.648 487.4Z" fill="white" stroke="#191919" stroke-width="2" stroke-miterlimit="10"/>
<path opacity="0.12" d="M341.448 486.3C332.748 489.4 337.648 514.4 335.448 542.6C334.948 548.6 331.448 590.5 313.748 615.7C285.248 656.2 219.248 653.9 203.848 653.1C205.648 656.2 208.848 660.7 214.148 664.5C220.148 668.7 226.648 670.3 235.248 671C244.248 671.7 258.548 672.9 277.448 667.2C287.248 664.2 312.148 656.7 328.848 633.6C333.448 627.3 336.048 621.1 341.348 608.7C344.148 602.1 350.848 585.4 355.948 561.1C355.948 561.1 359.348 544.8 359.148 504.8C359.148 500.3 358.148 496.4 355.348 492.9C352.148 488.5 345.548 484.8 341.448 486.3Z" fill="#6C6D6D"/>
<path opacity="0.25" d="M352.848 559.4C351.748 559.1 348.748 575.2 334.948 600C325.948 616.3 314.048 637 292.148 652.5C269.748 668.3 248.648 670.3 248.848 670.9C249.048 671.7 291.748 670.3 320.848 642.2C353.348 610.8 354.748 559.9 352.848 559.4Z" fill="#6C6D6D"/>
<path d="M350.948 470.1C337.048 479.7 328.848 490.3 324.948 495.4C301.848 525.8 299.148 558.9 298.248 573.4C296.148 605.6 304.948 612.5 306.148 662.9C306.548 679.6 305.948 693.3 305.448 701.9C317.648 710.8 343.848 727.5 381.248 732.2C427.148 738 462.448 722.4 475.848 715.6C483.648 708.3 494.348 697.2 504.248 681.8C514.448 666 521.548 649.1 531.148 609.8C536.848 586.4 543.448 555.3 548.548 517.7C540.548 506.2 512.348 469 460.648 455.7C451.348 453.3 395.948 439.1 350.948 470.1Z" fill="#2E5077"/>
<path opacity="0.09" d="M453.848 454.3C457.148 464.5 460.948 479.4 462.148 497.6C464.248 527.9 458.248 554.5 445.448 588.3C423.448 646.6 392.848 695.7 368.348 730.1C377.648 731.7 388.348 732.8 400.148 732.7C432.348 732.5 458.248 723.6 475.248 716C481.148 710.3 489.348 701.6 497.648 689.9C501.248 684.9 512.148 669 522.148 642C540.348 593 546.348 532.2 547.648 517.4C539.648 505.5 523.748 485.6 497.048 470.5C480.748 461.2 465.348 456.7 453.848 454.3Z" fill="#6C6D6D"/>
<path opacity="0.14" d="M545.048 534.6C530.948 572.8 516.348 603.2 504.948 624.8C492.548 648.3 485.448 661.5 473.148 676.4C448.248 706.5 418.348 723.7 394.948 733.7C404.848 733.5 416.548 732.5 429.348 730.1C447.248 726.6 462.148 721.2 473.648 716C480.748 710.4 490.448 701.8 499.748 689.4C511.748 673.3 518.548 656.8 527.348 623.2C533.348 600.4 540.048 570.5 545.048 534.6Z" fill="#6C6D6D"/>
<path d="M310.848 868.2C301.448 884.9 292.048 901.6 282.648 918.3C215.548 936.3 182.548 949.1 183.748 956.6C184.948 964.7 225.948 966.7 306.548 962.5C324.848 935.4 343.148 908.2 361.548 881.1C344.648 876.8 327.748 872.5 310.848 868.2Z" fill="#191919"/>
<path d="M488.048 695.3C513.748 710.5 517.748 755 505.848 785.9C486.648 835.5 428.548 844.4 426.048 844.7C448.848 818.5 460.148 805.4 460.148 805.3C460.048 805.2 424.748 845.3 354.248 925.5C347.348 924.6 318.648 920.2 298.348 895C286.548 880.4 282.748 865.1 281.448 856.9C323.548 808.3 365.548 759.8 407.648 711.2C432.248 688 465.648 682.1 488.048 695.3Z" fill="white" stroke="#191919" stroke-width="2" stroke-miterlimit="10"/>
<path opacity="0.16" d="M489.948 697.9C490.748 710.9 490.248 730.5 481.648 751.4C470.648 778.3 451.848 793.9 438.948 804.3C401.548 834.5 358.848 868.4 310.248 905C313.748 908.3 318.148 911.9 323.648 915.2C335.148 922.2 346.148 924.9 353.648 926C377.848 898.8 402.048 871.6 426.248 844.4C433.148 843.4 442.848 841.3 453.648 836.8C463.848 832.5 481.848 824.6 495.748 805.6C507.748 789 510.348 772.5 511.648 763.5C513.148 752.9 515.148 739.5 509.148 724C503.848 710.6 495.048 702.1 489.948 697.9Z" fill="#6C6D6D"/>
<path opacity="0.19" d="M509.048 731.6C506.848 744.8 502.148 763.1 491.248 782.6C470.448 819.4 439.848 837.7 425.648 845.1C436.848 843.3 460.248 837.9 481.048 819C486.948 813.6 498.748 802.7 505.948 784C514.748 760.7 511.048 740 509.048 731.6Z" fill="#6C6D6D"/>
<path opacity="0.12" d="M458.748 804.9C456.048 802.2 412.948 840 329.348 918.3C337.248 921.1 345.048 923.8 352.948 926.6C426.048 848.1 461.348 807.5 458.748 804.9Z" fill="#6C6D6D"/>
<path d="M185.248 535C186.248 535 187.348 535 188.348 535C188.648 533.9 188.948 532.7 189.248 531.6C190.448 534.1 192.448 538.2 194.948 543.3C205.948 565.6 208.148 569.3 210.148 576C211.748 581.5 213.648 589.4 214.248 599.5C216.148 598.2 218.948 596.4 222.548 594.4C241.948 583.8 258.148 583.7 272.748 581.1C283.648 579.1 298.948 574.7 316.848 564C315.748 565.5 314.648 567.1 313.548 568.6C315.248 569.2 317.048 569.9 318.748 570.5C319.748 571.8 321.048 573.9 322.148 576.6C327.948 590.9 319.348 606.6 311.048 621C277.148 680.6 273.648 683.7 267.548 686.7C265.048 688 239.848 700.3 221.948 688.9C218.248 686.6 211.548 681.1 202.948 642.2C197.048 615.7 196.348 600.9 190.748 566.1C188.648 552.9 186.648 542.1 185.248 535Z" fill="white" stroke="#191919" stroke-width="2" stroke-miterlimit="10"/>
<path d="M190.948 540.5C199.448 558.7 207.848 577.2 210.448 597.2C210.548 597.7 211.248 597.7 211.248 597.2C208.648 577 200.248 558.4 191.648 540.1C191.348 539.7 190.748 540.1 190.948 540.5Z" fill="#191919"/>
<path d="M187.748 537.3C192.748 547.9 196.848 558.8 200.248 570C200.348 570.5 201.148 570.3 200.948 569.8C197.548 558.5 193.348 547.6 188.348 536.9C188.148 536.5 187.548 536.9 187.748 537.3Z" fill="#191919"/>
<path d="M201.448 569.4C204.748 578.4 206.948 587.7 208.248 597.2C208.348 597.7 209.048 597.7 209.048 597.2C207.748 587.6 205.548 578.3 202.248 569.2C202.048 568.8 201.248 569 201.448 569.4Z" fill="#191919"/>
<path d="M192.748 555.2C197.348 566.5 201.348 578.1 204.648 589.9C204.748 590.4 205.548 590.2 205.348 589.7C202.048 577.9 198.048 566.3 193.448 555C193.348 554.5 192.548 554.7 192.748 555.2Z" fill="#191919"/>
<path d="M216.048 602C228.548 593.7 242.548 588.3 257.448 586.2C257.948 586.1 257.748 585.4 257.248 585.5C242.248 587.6 228.248 593 215.648 601.3C215.248 601.6 215.648 602.3 216.048 602Z" fill="#191919"/>
<path d="M222.248 600.8C235.248 592.9 249.948 589.9 264.548 586.6C280.048 583.1 295.148 578.4 309.848 572.4C310.248 572.2 310.048 571.5 309.648 571.7C294.448 578 278.748 582.7 262.648 586.3C248.548 589.5 234.348 592.6 221.848 600.2C221.548 600.4 221.848 601 222.248 600.8Z" fill="#191919"/>
<path d="M219.848 604.3C235.248 597 250.948 592.5 267.448 588.5C283.648 584.5 299.348 578.3 315.148 572.9C315.648 572.7 315.448 572 314.948 572.2C298.648 577.8 282.348 584.3 265.548 588.2C249.648 592 234.348 596.7 219.448 603.7C219.048 603.9 219.448 604.5 219.848 604.3Z" fill="#191919"/>
<path d="M184.748 534.8C192.048 557.9 199.448 580.9 206.748 604C210.348 605.2 213.948 606.4 217.548 607.6C251.748 596.3 285.848 585.1 320.048 573.8C321.248 574.8 322.448 575.8 323.648 576.9C327.548 624.4 331.548 671.8 335.448 719.3C334.048 720.2 332.748 721 331.348 721.9C296.648 727.2 262.048 732.5 227.348 737.8C222.348 736.6 217.448 735.4 212.448 734.2C208.048 714.7 203.548 695.3 199.148 675.8C192.648 629.7 186.148 583.6 179.648 537.5C181.348 536.5 183.048 535.7 184.748 534.8Z" fill="white" stroke="#191919" stroke-width="2" stroke-miterlimit="10"/>
<path d="M205.048 604.6C206.648 647.9 209.748 691.3 212.148 734.6C212.248 736 214.448 736 214.448 734.6C212.048 691.3 208.948 648 207.348 604.6C207.248 603.2 205.048 603.2 205.048 604.6Z" fill="#191919"/>
<path d="M215.448 607.4C216.848 619.7 217.448 632 217.448 644.4C217.448 645.8 219.648 645.8 219.748 644.4C219.748 632 219.148 619.7 217.748 607.4C217.548 605.9 215.248 605.9 215.448 607.4Z" fill="#191919"/>
<path d="M242.748 610.8C243.348 618.3 243.848 625.8 244.448 633.3C266.548 626.6 288.648 619.8 310.648 613.1C309.948 605.3 309.248 597.5 308.648 589.7C286.648 596.8 264.748 603.8 242.748 610.8Z" fill="#23D3FA"/>
<path opacity="0.16" d="M277.648 588.8C278.048 598.8 277.748 621.2 264.948 645.3C251.348 670.9 231.448 684.1 222.848 689.1C222.448 680.9 221.948 672.7 221.548 664.6C218.148 670.3 214.848 676 211.448 681.7C212.148 699.5 212.948 717.3 213.648 735.2C218.448 736.2 223.248 737.2 228.148 738.3C261.848 732.9 295.648 727.5 329.348 722.1C331.148 721.4 332.848 720.6 334.648 719.9C330.848 671.8 327.048 623.8 323.248 575.7C308.048 580.1 292.848 584.4 277.648 588.8Z" fill="#6C6D6D"/>
<path opacity="0.1" d="M215.948 608.3C215.248 608.3 214.448 626.8 214.948 646.9C215.548 675.5 218.248 688 217.448 715.3C217.148 724.2 216.648 731.5 216.248 736.2C219.948 736.7 223.748 737.2 227.448 737.7C226.748 732.8 225.748 725.7 224.748 717.2C216.948 653.6 217.048 608.3 215.948 608.3Z" fill="#6C6D6D"/>
<path d="M185.348 604.3C184.248 604.7 184.348 606.7 183.448 616C182.848 622.3 182.648 622.4 182.848 623.9C183.348 628.1 184.848 628.9 185.348 633.7C185.648 636.8 185.048 637.2 185.548 639.8C186.148 643 187.548 645.4 188.648 646.9C188.648 647.9 188.848 649.6 189.648 651.3C191.248 654.4 194.948 657.1 196.948 656.1C198.048 655.6 198.348 653.5 198.848 649.4C199.348 645.6 199.048 645.4 199.448 641C199.848 637.4 200.148 636.7 199.848 634.9C199.548 632.7 198.748 632 197.948 629.7C196.848 626.5 197.348 625.3 196.648 622C195.648 616.5 193.048 612.6 191.648 610.5C190.248 608.2 187.148 603.7 185.348 604.3Z" fill="white"/>
<path d="M184.548 603.3C179.148 615 184.548 628.1 196.748 632.4C198.148 632.9 198.748 630.7 197.348 630.2C186.548 626.4 181.748 614.8 186.548 604.4C187.148 603.2 185.148 602 184.548 603.3Z" fill="#191919"/>
<path d="M184.948 605.2C192.148 611.9 196.348 620.7 196.948 630.5C197.048 631.9 199.248 631.9 199.248 630.5C198.648 620.1 194.248 610.7 186.548 603.6C185.448 602.6 183.848 604.2 184.948 605.2Z" fill="#191919"/>
<path d="M182.048 617.3C179.448 629 186.348 640.1 198.248 642.6C199.648 642.9 200.248 640.7 198.848 640.4C188.248 638.2 181.848 628.5 184.248 617.8C184.448 616.5 182.348 615.9 182.048 617.3Z" fill="#191919"/>
<path d="M184.148 632.1C182.048 641 187.448 649.5 196.448 651.2C197.848 651.5 198.448 649.3 197.048 649C189.248 647.6 184.448 640.5 186.248 632.7C186.648 631.3 184.548 630.7 184.148 632.1Z" fill="#191919"/>
<path d="M187.048 646.3C186.648 650.6 189.148 654.9 193.148 656.5C194.848 657.2 197.048 657.3 198.348 655.8C199.748 654.2 199.148 651.8 198.348 650.1C197.848 648.8 195.648 649.4 196.148 650.7C196.648 651.8 197.648 654 196.048 654.7C194.848 655.2 192.948 654 192.048 653.3C189.948 651.6 188.948 649 189.248 646.3C189.448 644.9 187.248 644.9 187.048 646.3Z" fill="#191919"/>
<path d="M197.348 651C199.548 651 200.448 648.8 200.748 646.9C201.148 644.6 200.748 642.2 199.548 640.2C198.848 638.9 196.848 640.1 197.648 641.3C198.348 642.5 198.748 643.8 198.748 645.1C198.748 645.8 198.548 648.7 197.348 648.7C195.948 648.8 195.948 651 197.348 651Z" fill="#191919"/>
<path d="M200.148 641.8C201.548 640.5 201.548 638 201.248 636.2C200.948 633.9 199.948 631.9 198.348 630.2C197.348 629.1 195.748 630.7 196.748 631.8C197.748 632.9 198.548 634.2 198.848 635.8C199.048 636.9 199.348 639.3 198.448 640.2C197.548 641.3 199.148 642.9 200.148 641.8Z" fill="#191919"/>
<path d="M519.548 500.8C493.948 501.2 477.348 540.4 472.348 552.2C465.148 569.3 466.448 576.4 456.048 620.7C452.448 636.3 449.048 648.9 446.848 657C437.548 661.5 419.348 668.6 396.348 666.6C382.648 665.4 367.148 664 356.048 652.7C345.248 641.7 346.348 629.4 334.948 625.6C327.548 623.1 318.648 625.4 317.548 628.8C316.848 631.2 320.148 633.1 324.348 641.2C325.848 644.2 326.948 646.7 327.548 648.6C314.148 652.2 302.948 653.6 294.648 654.2C274.548 655.6 261.148 653 257.148 660.1C255.548 662.9 254.948 668.4 257.648 672.2C259.048 674.2 260.948 675.2 262.148 675.7C261.948 676 259.048 679.7 260.548 684.3C261.948 688.6 265.848 690.1 266.248 690.2C266.048 690.7 264.348 694.8 266.748 698.9C269.048 702.8 273.148 703.6 273.648 703.6C273.248 705 272.848 707.4 273.848 709.7C275.348 713.3 279.248 714.9 282.648 716C300.948 721.7 316.048 719.3 316.048 719.3C333.148 716.6 345.848 708.9 353.248 703.4C361.048 710.5 377.048 723.1 400.848 729.3C409.348 731.5 435.748 738.1 464.748 727.2C495.548 715.7 511.048 691.4 524.448 670.4C538.848 647.8 544.148 628.7 551.148 603.6C561.048 568 565.848 549.8 556.948 531C550.948 517.6 536.448 500.5 519.548 500.8Z" fill="white" stroke="#191919" stroke-width="2" stroke-miterlimit="10"/>
<path d="M260.748 675.8C273.848 680.1 287.548 680.6 300.848 677.4C302.248 677.1 301.648 674.9 300.248 675.2C287.248 678.3 274.048 677.8 261.348 673.6C259.948 673.2 259.348 675.3 260.748 675.8Z" fill="#191919"/>
<path d="M266.148 690.9C278.948 694.1 292.048 694.2 304.948 691.4C306.348 691.1 305.748 688.9 304.348 689.2C291.848 691.9 279.148 691.7 266.748 688.7C265.348 688.3 264.748 690.5 266.148 690.9Z" fill="#191919"/>
<path d="M272.348 704C283.848 707.5 295.648 708.1 307.348 705.7C308.748 705.4 308.148 703.2 306.748 703.5C295.348 705.8 283.948 705.2 272.948 701.8C271.548 701.4 270.948 703.6 272.348 704Z" fill="#191919"/>
<path opacity="0.12" d="M542.748 509.9C541.948 528.3 539.048 555.9 529.048 587.8C517.448 624.8 505.148 664 468.048 688.4C458.748 694.5 434.448 710.3 401.148 707.5C376.248 705.4 358.348 694 350.148 687.9C334.048 695.5 320.148 698.5 310.948 699.7C299.148 701.3 290.848 700.8 288.648 700.6C279.148 699.9 271.448 697.9 265.848 696C268.148 698.6 270.448 701.2 272.648 703.7C272.348 705.6 272.248 708.7 274.048 711.4C276.048 714.5 279.548 715.7 285.848 716.9C294.448 718.5 298.748 719.3 306.348 719.2C313.248 719 322.948 718.7 334.548 714.2C339.348 712.3 345.848 709.2 352.748 703.7C357.048 707.3 363.448 712.2 371.848 716.9C381.548 722.4 401.648 733.5 429.248 733.3C437.148 733.2 455.448 732.9 475.248 722.4C487.948 715.6 495.648 707.6 503.448 699.2C519.848 681.6 528.248 664.9 534.848 651.4C545.348 630 549.548 613.7 555.748 589C563.248 559.7 562.548 550.8 561.248 544.4C558.148 528.3 549.148 516.7 542.748 509.9Z" fill="#6C6D6D"/>
<path opacity="0.2" d="M558.248 570C548.748 603 537.048 628.8 527.848 646.5C505.248 690.2 489.448 701.2 483.948 704.8C465.148 717 446.648 719.4 438.848 720.3C390.948 725.5 354.748 699.5 353.248 702.5C352.048 704.9 373.948 723.2 404.248 729.8C413.248 731.8 440.148 737.3 469.348 724.3C490.948 714.7 502.948 699.8 512.148 688.3C525.348 671.9 531.548 657.2 538.548 640C545.348 623.8 553.448 600.1 558.248 570Z" fill="#6C6D6D"/>
<path opacity="0.12" d="M274.548 709.8C281.548 712 290.248 713.9 300.548 714.4C325.148 715.5 344.248 707.3 354.248 702.1C350.548 705.6 333.648 720.8 308.248 720.3C291.848 720 279.848 713.3 274.548 709.8Z" fill="#6C6D6D"/>
<path d="M346.248 336.1C342.948 341.7 342.148 352.1 340.548 372.9C338.848 395.4 340.048 405.6 339.248 422.3C338.648 435.4 336.848 454.1 331.548 476.8C340.548 493.9 351.348 500.4 357.248 503.1C387.048 516.9 424.348 495.1 449.048 480.6C461.148 473.5 470.348 466.6 476.048 462C473.648 457.2 470.348 450 467.748 440.8C463.448 426 463.848 417.1 462.648 400.4C459.748 360.9 459.648 352.1 453.648 340.1C450.648 334.1 448.148 328.9 442.948 324C418.048 300.7 362.348 309.1 346.248 336.1Z" fill="white" stroke="#161616" stroke-width="2" stroke-miterlimit="10"/>
<path d="M338.548 402.6C334.448 408.3 326.748 420.6 324.248 438.2C323.248 445.6 322.348 459.8 328.248 476.1C330.848 483.2 337.148 499.5 354.048 511C363.648 517.6 373.148 520 378.848 521.1C375.448 517.4 372.148 513.7 368.748 510C372.348 512 380.948 516.1 392.448 515.6C395.948 515.4 407.248 514.5 417.748 506.5C425.448 500.6 428.648 493.9 433.948 482.3C440.948 467.1 445.848 456.2 445.548 441.9C445.148 423.3 436.248 418.9 439.448 401.5C440.148 397.6 442.348 385.6 449.548 383.8C452.948 383 456.648 384.7 458.648 386.8C462.948 391.3 462.548 400.5 456.148 408C459.248 407.3 466.348 405 471.348 398.4C478.948 388.2 477.048 373.5 469.848 365.1C468.048 363 464.748 359.1 459.748 358.5C453.048 357.7 447.448 363.5 437.548 375.2C416.848 399.7 417.148 404 406.748 411.6C394.248 420.7 382.948 422.4 379.648 422.9C374.048 423.6 365.648 424.6 356.448 420.4C345.448 415.2 340.248 406 338.548 402.6Z" fill="#161616"/>
<path d="M369.048 374.4C366.448 387.4 364.948 400.8 365.048 414.1C365.048 417 365.048 421.4 368.648 422.3C372.448 423.2 378.048 418.5 380.848 416.6C382.448 415.5 380.948 412.9 379.348 414C376.848 415.7 368.548 421.8 368.048 416C367.748 411.7 368.148 407.1 368.348 402.8C368.848 393.5 370.148 384.3 371.948 375.2C372.348 373.4 369.448 372.6 369.048 374.4Z" fill="#161616"/>
<path d="M353.548 385.6C352.048 383.2 351.948 380.3 353.448 377.9C352.548 377.8 351.648 377.7 350.748 377.5C351.848 380.3 352.348 383.3 351.948 386.3C352.648 386 353.448 385.7 354.148 385.4C353.848 385.2 353.548 385.1 353.248 384.9C351.548 384 350.048 386.6 351.748 387.5C352.048 387.7 352.348 387.8 352.648 388C353.448 388.4 354.748 388.1 354.848 387.1C355.348 383.5 355.048 380 353.648 376.7C353.148 375.5 351.648 375.2 350.948 376.3C348.948 379.6 348.948 383.7 351.048 387C351.948 388.8 354.548 387.3 353.548 385.6Z" fill="#161616"/>
<path d="M396.548 384.7C395.948 383.6 395.548 382.5 395.548 381.2C395.548 380.6 395.648 380.1 395.748 379.5C395.848 379.2 395.948 378.9 396.048 378.6C396.448 378 396.148 377.9 395.148 378.2C395.048 378.3 395.848 381.4 395.848 381.7C395.948 383.1 395.748 384.5 395.448 385.9C396.248 385.7 397.148 385.5 397.948 385.2C397.248 384.6 396.848 384 396.848 383C396.748 381.1 393.748 381.1 393.848 383C393.948 384.7 394.548 386.2 395.848 387.3C396.648 388 398.048 387.8 398.348 386.6C398.848 384.2 398.948 381.7 398.548 379.3C398.248 377.7 397.648 375.1 395.548 375.3C393.548 375.5 392.948 378.2 392.748 379.8C392.448 382 392.948 384.1 394.048 386.1C394.948 387.9 397.548 386.4 396.548 384.7Z" fill="#161616"/>
<path d="M393.848 379.3C394.048 381.1 394.148 382.9 394.348 384.7C394.548 386.6 397.548 386.6 397.348 384.7C397.148 382.9 397.048 381.1 396.848 379.3C396.648 377.4 393.648 377.4 393.848 379.3Z" fill="#161616"/>
<path d="M393.648 383.4C393.348 384.7 393.248 386.2 394.248 387.1C395.248 388 396.848 388.2 397.748 387.1C398.248 386.5 398.348 385.6 397.748 385C397.248 384.5 396.148 384.4 395.648 385C395.448 385.3 395.848 384.9 396.048 384.8C396.148 384.8 396.348 384.8 396.248 384.8C396.148 384.8 396.448 384.9 396.248 384.8C396.348 384.9 396.348 385 396.448 385.1C396.548 385.2 396.448 384.9 396.448 385C396.448 385.1 396.448 384.8 396.448 384.7C396.448 384.9 396.448 384.6 396.448 384.6C396.448 384.4 396.548 384.3 396.548 384.1C396.748 383.3 396.348 382.4 395.548 382.3C394.748 382.2 393.848 382.6 393.648 383.4Z" fill="#161616"/>
<path d="M350.248 377C349.448 380 349.448 383.2 350.548 386.2C351.148 388 354.048 387.2 353.448 385.4C352.548 382.9 352.448 380.4 353.148 377.8C353.648 376 350.748 375.2 350.248 377Z" fill="#161616"/>
<path d="M352.948 382.2C352.648 381 352.748 379.7 353.048 378.5C352.048 378.2 351.148 378 350.148 377.7C349.748 379.6 349.748 381.4 350.048 383.3C350.148 384.1 351.148 384.5 351.848 384.3C352.648 384.1 353.048 383.3 352.848 382.5C352.648 381.2 352.648 379.8 352.948 378.5C353.348 376.6 350.548 375.8 350.048 377.7C349.648 379.5 349.648 381.2 349.948 383C350.448 384.9 353.248 384.1 352.948 382.2Z" fill="#161616"/>
<path d="M346.448 371.3C348.048 366.6 353.748 365.7 356.948 369.4C357.948 370.5 359.448 368.9 358.548 367.8C354.148 362.8 346.448 364.5 344.348 370.7C343.748 372.1 345.948 372.7 346.448 371.3Z" fill="#161616"/>
<path d="M388.848 371.3C392.448 365.5 400.948 369.3 403.048 374.3C403.548 375.6 405.748 375 405.248 373.7C402.448 366.8 391.648 362.7 386.948 370.1C386.148 371.4 388.148 372.5 388.848 371.3Z" fill="#161616"/>
<path d="M305.448 342.5C360.448 349.8 415.348 357 470.348 364.3C476.048 365.1 476.048 356 470.348 355.3C415.348 348 360.448 340.8 305.448 333.5C299.748 332.7 299.748 341.7 305.448 342.5Z" fill="#161616"/>
<path d="M343.848 338.7C345.148 332.1 348.248 321.3 356.048 310.3C359.148 305.9 364.548 298.2 373.848 292.7C391.448 282.2 418.448 283.2 437.948 296.4C457.048 309.3 466.448 332.1 462.148 354.8C422.748 349.4 383.248 344.1 343.848 338.7Z" fill="#23D3FA"/>
<path d="M397.748 286.4C413.148 289.5 424.648 302 426.048 316.7C427.248 328.8 421.348 340.9 410.848 348.1C428.148 350.3 445.348 352.6 462.648 354.8C463.548 350.6 464.448 344.3 463.348 336.9C460.948 320.1 450.848 309.5 446.348 304.9C442.848 301.4 430.048 288.7 409.948 286.4C405.048 285.8 400.748 286.1 397.748 286.4Z" fill="#18A5C5"/>
<path opacity="0.24" d="M407.848 356.1C409.448 361.7 411.048 369.2 410.948 378.1C410.748 395.4 404.648 408.6 400.748 415.4C404.048 413.8 408.748 411.1 413.248 406.6C416.448 403.4 417.648 401.1 421.048 396.1C421.048 396.1 426.748 387.7 435.248 377.5C438.548 373.5 443.448 367.9 450.248 361.6C436.048 359.7 421.948 357.9 407.848 356.1Z" fill="#6C6D6D"/>
<path opacity="0.22" d="M448.448 383.6C445.848 384.6 444.348 386.6 443.348 388C442.148 389.7 440.848 392.1 439.948 398.5C439.148 404 438.348 409 439.448 415.4C440.248 420.2 441.248 420.3 442.848 426.2C443.548 428.7 445.748 436.9 445.248 446.5C444.948 453.8 443.248 458.9 440.848 466.1C438.648 472.6 435.048 481.5 429.048 491.6C440.048 485.4 451.248 478.6 462.548 471.3C467.248 468.3 471.748 465.3 476.248 462.2C473.748 457.9 471.248 452.9 469.148 447.3C462.948 430.9 462.048 415.9 462.548 405.4C460.648 406.2 458.748 407 456.948 407.8C462.848 398.5 462.548 388.9 458.148 385.3C456.148 383.5 452.048 382.2 448.448 383.6Z" fill="#6C6D6D"/>
<path opacity="0.21" d="M460.248 389C459.348 392.7 458.048 397 455.848 401.7C454.248 405.1 452.548 408 450.948 410.5C453.948 413.7 458.848 420 460.948 429.1C463.248 438.9 461.148 446.8 458.748 455.5C457.048 461.9 453.648 471.4 446.948 481.7C456.348 475.3 465.748 469 475.148 462.6C471.548 454.6 467.748 444.1 465.348 431.3C463.548 421.5 463.048 412.6 463.148 405.3C460.748 406.2 458.448 407.1 456.048 408C457.148 406.9 459.848 403.9 460.948 399.2C462.048 394.4 460.748 390.4 460.248 389Z" fill="#6C6D6D"/>
<path opacity="0.19" d="M407.148 355.7C419.048 359.9 431.048 364.1 442.948 368.3C445.648 366.1 448.348 363.8 451.148 361.6C436.448 359.6 421.848 357.6 407.148 355.7Z" fill="#6C6D6D"/>
</svg>
